<?xml version="1.0" encoding="UTF-8"?>
<svg version="1.1" xmlns="http://www.w3.org/2000/svg" width="512" height="512">
<path d="M0 0 C14.27303673 10.92405604 21.37620299 23.68691491 24.51953125 41.10546875 C26.37014782 56.10599489 22.86070523 71.47106629 13.74707031 83.67822266 C4.92866642 94.61885781 -6.23544363 102.55886091 -20 106 C-20.33 130.09 -20.66 154.18 -21 179 C-12.34394531 178.96519531 -3.68789063 178.93039063 5.23046875 178.89453125 C11.43133382 178.87724091 17.63218065 178.86186438 23.83305454 178.8492384 C31.85384553 178.83265331 39.87454229 178.81164077 47.89526367 178.77368164 C54.24845285 178.74362885 60.60157074 178.72438962 66.95482904 178.71773452 C70.31388822 178.71384886 73.67258316 178.70320785 77.03160667 178.68280983 C80.7961752 178.66086896 84.56032848 178.65804007 88.32495117 178.65942383 C89.41900269 178.648638 90.5130542 178.63785217 91.64025879 178.6267395 C107.82081546 178.69063137 120.93251025 183.40577957 132.7109375 194.5859375 C139.31743283 201.55319708 143.27258697 208.82064217 146 218 C146.17575058 218.57989685 146.35150116 219.1597937 146.53257751 219.75726318 C147.13377791 222.64187893 147.1647127 225.38200717 147.20532227 228.32910156 C147.22526749 229.61012756 147.24521271 230.89115356 147.26576233 232.21099854 C147.28274409 233.60420614 147.29962299 234.99741499 147.31640625 236.390625 C147.33698794 237.81980983 147.35798473 239.24898873 147.37937927 240.67816162 C147.43447449 244.4329345 147.48393888 248.18776118 147.53222656 251.94262695 C147.58253345 255.77690395 147.63817148 259.6111032 147.69335938 263.4453125 C147.80078736 270.96347575 147.90226616 278.48170382 148 286 C148.87100342 286.32250732 149.74200684 286.64501465 150.6394043 286.97729492 C151.79351807 287.41146729 152.94763184 287.84563965 154.13671875 288.29296875 C155.27584717 288.71860107 156.41497559 289.1442334 157.58862305 289.58276367 C171.70543254 295.44750847 181.96033448 305.90017593 188.25390625 319.76171875 C194.39823577 335.6553534 194.55386439 352.19479654 188 368 C180.89168322 383.10517316 169.49934617 392.82785676 154.28125 399.125 C152.1925666 399.84907691 150.14830681 400.48321049 148 401 C146.90558594 401.27263672 146.90558594 401.27263672 145.7890625 401.55078125 C129.30023877 404.20654418 114.01113345 401.08259405 100 392 C86.70547797 381.82486303 78.10315028 368.82921669 75.375 352.1875 C73.68530266 335.82246831 77.14154815 319.79199221 87.515625 306.69921875 C95.9983285 296.67196785 107.14874663 289.11292231 120 286 C120.06989357 278.74089539 120.12300907 271.48186482 120.15543652 264.22249031 C120.17100989 260.85067884 120.19209282 257.47909969 120.22631836 254.10742188 C120.26292452 250.21999098 120.27977786 246.332885 120.29296875 242.4453125 C120.30845261 241.25011993 120.32393646 240.05492737 120.33988953 238.82351685 C120.34157035 230.36403863 119.83320869 221.21644826 113.875 214.625 C113.35679687 214.01914062 112.83859375 213.41328125 112.3046875 212.7890625 C105.02098141 207.13493133 97.76184208 206.41333525 88.77905273 206.45410156 C86.99217796 206.43859505 86.99217796 206.43859505 85.16920471 206.42277527 C81.93001587 206.39847764 78.69136676 206.39150626 75.45210528 206.39249516 C72.05677547 206.38934937 68.66161416 206.36369687 65.26637268 206.34051514 C58.84930126 206.30007822 52.43233115 206.27964357 46.01515204 206.26654124 C37.98591646 206.24906586 29.95685802 206.20463055 21.92773438 206.16015625 C7.61849453 206.08101376 -6.69049937 206.04239224 -21 206 C-20.67 232.4 -20.34 258.8 -20 286 C-15.38 287.65 -10.76 289.3 -6 291 C8.68402996 300.58326166 19.17326379 312.46256188 23.71875 329.73046875 C26.92401396 345.35613056 24.47602509 362.12802267 15.75390625 375.59375 C6.2422805 388.64310737 -6.84045884 399.02300512 -23.14453125 401.71875 C-40.56212333 403.43429942 -56.57686655 400.54007794 -70.86328125 389.859375 C-84.51762175 378.00765609 -90.81185232 364.73644911 -93 347 C-93.83024314 331.65071737 -89.05255603 316.75846439 -79.03710938 305.05957031 C-70.59917941 295.74050105 -60.2810665 289.07026663 -48 286 C-47.505 246.4 -47.505 246.4 -47 206 C-69.49207247 206.03653892 -69.49207247 206.03653892 -91.98381615 206.12156963 C-100.02976856 206.16030239 -108.07552914 206.19173596 -116.12158203 206.19555664 C-122.49357393 206.19860604 -128.8652316 206.21922669 -135.23709452 206.26052457 C-138.60779753 206.28176866 -141.97802645 206.2945001 -145.34879684 206.28615379 C-149.1215538 206.28124003 -152.89293922 206.30737923 -156.66552734 206.34057617 C-157.77036469 206.33195053 -158.87520203 206.32332489 -160.01351929 206.31443787 C-168.87047023 206.44459636 -176.10053744 208.79272537 -182.4375 215.1875 C-188.51398164 223.17010572 -188.41744267 232.83722154 -188.29296875 242.4453125 C-188.28872391 243.69633759 -188.28447906 244.94736267 -188.28010559 246.23629761 C-188.26625204 249.52762875 -188.23940206 252.81850082 -188.20599365 256.10968018 C-188.1750482 259.48191778 -188.16154853 262.85422318 -188.14648438 266.2265625 C-188.1135554 272.81788464 -188.0634617 279.40890486 -188 286 C-187.25886963 286.26337158 -186.51773926 286.52674316 -185.75415039 286.7980957 C-184.28449829 287.32536255 -184.28449829 287.32536255 -182.78515625 287.86328125 C-181.81715088 288.20915283 -180.84914551 288.55502441 -179.85180664 288.91137695 C-166.02890887 294.18800577 -154.77961656 304.95388542 -148.25 318.1875 C-141.64865717 333.74313955 -141.04252621 350.35829094 -147.1875 366.125 C-153.59184889 380.46924342 -164.47093315 392.34890946 -179.1953125 398.2890625 C-194.56996672 403.53986578 -211.18943785 404.20680697 -226.26953125 397.55859375 C-240.82605081 390.25491513 -252.73041094 378.63504446 -258 363 C-262.52249302 345.62480242 -261.73354641 329.31765761 -253.140625 313.359375 C-244.58606137 299.93432989 -231.62791951 289.78550619 -216 286 C-215.99635437 285.22707108 -215.99270874 284.45414215 -215.98895264 283.65779114 C-215.95084156 276.3182114 -215.89373179 268.97912638 -215.81609726 261.63986683 C-215.7768472 257.86804968 -215.74455025 254.09645813 -215.72900391 250.32446289 C-215.71368698 246.67369263 -215.67898291 243.02354358 -215.63169098 239.3730526 C-215.61703003 237.99110042 -215.60896793 236.60905948 -215.60811615 235.2270298 C-215.58806878 218.98634791 -211.42102972 205.6699317 -200.1875 193.6875 C-187.55263241 181.8058649 -172.82206127 178.83212274 -156.09790039 178.88647461 C-154.91669617 178.88632858 -153.73549194 178.88618256 -152.51849365 178.8860321 C-149.2979189 178.88660718 -146.07738826 178.89160394 -142.85682225 178.89860606 C-139.48425697 178.90488011 -136.11169071 178.9054466 -132.73912048 178.90663147 C-126.36092962 178.90973288 -119.982756 178.91793015 -113.60457271 178.92798096 C-105.62635908 178.94027877 -97.64814262 178.94573407 -89.66992188 178.95117188 C-75.44660116 178.9608963 -61.22331807 178.98093105 -47 179 C-47.33 154.91 -47.66 130.82 -48 106 C-51.63 104.68 -55.26 103.36 -59 102 C-73.54132845 95.0281302 -84.30057656 83.10126981 -90.03125 68.01953125 C-95.07858189 52.28732337 -93.53721759 35.76658739 -86.53125 20.87890625 C-78.65397758 6.29480519 -65.81931156 -3.7867009 -49.96484375 -8.52734375 C-49.31644531 -8.68332031 -48.66804687 -8.83929688 -48 -9 C-47.27039063 -9.18175781 -46.54078125 -9.36351562 -45.7890625 -9.55078125 C-29.30023877 -12.20654418 -14.01113345 -9.08259405 0 0 Z M-58.875 27.6875 C-64.37229434 34.52337902 -66.78087729 42.51646251 -66.37109375 51.24609375 C-65.0218263 61.25907852 -60.51274431 68.33166331 -53 75 C-50.43023556 76.77906769 -47.94762262 77.98012257 -45 79 C-44.37609375 79.23332031 -43.7521875 79.46664062 -43.109375 79.70703125 C-35.10125138 82.22991572 -26.56518065 80.98724548 -19.12890625 77.2890625 C-11.21064425 72.49451854 -6.07805065 66.24460403 -2.6875 57.6875 C-0.77417104 47.4250992 -1.82402762 38.37438092 -7.625 29.51953125 C-13.40204629 22.33432992 -21.4419638 17.4302782 -30.625 16 C-41.7292627 15.49980799 -51.19327349 19.71095243 -58.875 27.6875 Z M-225.90234375 321.48828125 C-232.06589375 328.8684724 -234.39075024 336.59545189 -234.27734375 346.05859375 C-233.52754876 354.01064488 -229.52618556 361.31522633 -224 367 C-214.94797097 374.31312938 -206.52369874 375.99320276 -195 375 C-187.23737754 373.29889827 -181.16100592 368.96518633 -176 363 C-170.354246 354.02608076 -168.2902206 344.85574321 -170.578125 334.34375 C-173.42886374 326.15435508 -179.34370931 318.61059859 -187.0625 314.5 C-201.08425677 308.59023373 -214.90925248 310.67393943 -225.90234375 321.48828125 Z M-57.90234375 321.48828125 C-64.76545965 329.70612766 -66.94273703 338.49326411 -66 349 C-64.03168282 358.13951099 -59.35919452 365.32160376 -51.62109375 370.6328125 C-43.04114939 375.58006213 -33.93745173 376.50647292 -24.17578125 374.38671875 C-15.67893654 371.35880078 -9.1262747 365.76608666 -5 357.75 C-1.22396771 349.51615182 -0.71780783 341.14051494 -3.4375 332.4375 C-6.47387403 324.94849267 -11.87414925 318.34229399 -19.0625 314.5 C-33.08425677 308.59023373 -46.90925248 310.67393943 -57.90234375 321.48828125 Z M108.75 323.25 C103.30863827 330.04426861 101.27031462 337.33891898 101.625 345.984375 C102.80317601 355.45887375 106.70644369 362.820238 114 369 C122.53347819 375.06490961 130.70159247 376.30287884 141 375 C149.9548038 372.93350682 156.82079978 367.60340325 161.875 360 C166.32845068 352.15772826 167.2440597 343.98651549 165.41796875 335.19921875 C162.72167686 326.49475131 157.07741001 318.85091837 148.9375 314.5 C133.6369351 308.0640481 120.07313634 311.24747548 108.75 323.25 Z " fill="#000000" transform="translate(290,60)"/>
</svg>
