<?xml version="1.0" encoding="UTF-8"?>
<svg version="1.1" xmlns="http://www.w3.org/2000/svg" width="512" height="512">
<path d="M0 0 C0.68551882 -0.00765109 1.37103764 -0.01530219 2.07732975 -0.02318513 C4.36202023 -0.04373414 6.64569494 -0.03588356 8.93045044 -0.02792358 C10.57351609 -0.03662289 12.21657362 -0.04699089 13.85961914 -0.05889893 C18.31429605 -0.08564887 22.76863328 -0.0868397 27.22337484 -0.08177233 C30.94597125 -0.07963066 34.66849924 -0.08940543 38.39108098 -0.09898317 C47.1757407 -0.12116347 55.96022939 -0.12205424 64.74490356 -0.10995483 C73.79848958 -0.09787649 82.85145387 -0.12249559 91.90493381 -0.16509497 C99.68604737 -0.20035722 107.46696331 -0.21232495 115.24815381 -0.20581949 C119.8919453 -0.20219792 124.53529335 -0.20742361 129.1790123 -0.23524857 C133.54761287 -0.26044611 137.91524641 -0.2564811 142.28383255 -0.23042679 C143.88336263 -0.2257046 145.4829612 -0.23113161 147.08241272 -0.24767303 C161.73578937 -0.38824205 161.73578937 -0.38824205 167.08681488 4.57270241 C167.70311012 5.21577024 168.31940536 5.85883808 168.95437622 6.52139282 C170.13018627 7.6315957 170.13018627 7.6315957 171.32975006 8.76422691 C174.1445069 11.44175152 176.89433698 14.17909933 179.63723755 16.92959595 C180.68732107 17.9753242 181.73781908 19.02063636 182.78869629 20.06556702 C185.62160272 22.8851663 188.44815762 25.71104992 191.27314591 28.53857994 C193.63732833 30.90383677 196.00449106 33.26609993 198.37159938 35.62842798 C203.95516564 41.20092978 209.53342486 46.77870494 215.10842896 52.35977173 C220.85288463 58.11027815 226.60648311 63.8515197 232.3645857 69.5883584 C237.31879368 74.52494526 242.26716957 79.46732535 247.21094722 84.41435766 C250.15920545 87.36442656 253.10963208 90.31223978 256.0657444 93.25444031 C258.84270406 96.01881641 261.61229935 98.79036612 264.37644577 101.56755257 C265.39009754 102.58356772 266.4062996 103.59704605 267.42525673 104.6077404 C268.81889515 105.99089145 270.20235005 107.38428051 271.58531189 108.77810669 C272.74916019 109.94170338 272.74916019 109.94170338 273.93652058 111.12880707 C279.24003707 117.4172242 279.38871682 122.79918577 279.3487854 130.70507812 C279.3548765 131.83570415 279.36096761 132.96633018 279.36724329 134.1312176 C279.38390019 137.92202247 279.37909347 141.71249243 279.3742981 145.50332642 C279.37999994 148.22027144 279.39012967 150.93719624 279.39996338 153.65412903 C279.42100697 160.26945367 279.42555885 166.88469065 279.42377549 173.50004481 C279.42246733 178.87789536 279.4262748 184.25571859 279.43370056 189.633564 C279.43579978 191.18327256 279.43789738 192.73298112 279.43999338 194.28268969 C279.44155867 195.43972979 279.44155867 195.43972979 279.44315559 196.62014444 C279.46205363 211.20524648 279.4610091 225.79029821 279.45418626 240.37540741 C279.4486111 253.71337778 279.46943577 267.05115605 279.50254673 280.38908152 C279.53629341 294.089597 279.55145085 307.79002048 279.5468297 321.49057829 C279.54458599 329.18034766 279.54981361 336.86993948 279.57472229 344.55967331 C279.59574811 351.10636778 279.5993149 357.65278735 279.5804227 364.19949315 C279.57127217 367.53846649 279.57281595 370.87650854 279.59077835 374.21550941 C279.60892488 377.83872172 279.59625327 381.46056949 279.57583618 385.08374023 C279.58835403 386.13413746 279.60087188 387.18453469 279.61376905 388.26676214 C279.53319309 394.93604056 278.27535669 399.35870582 273.95437622 404.52139282 C269.66285261 408.32595209 265.12004691 407.92955828 259.66604614 407.86196899 C258.73872681 407.86240707 257.81140747 407.86284515 256.85598755 407.86329651 C253.79872395 407.86121077 250.74201248 407.83788958 247.68484497 407.81436157 C245.56207072 407.80876486 243.43929258 407.80449512 241.31651306 407.80149841 C235.73512026 407.7900556 230.15396245 407.76059307 224.57266235 407.72738647 C218.87506285 407.69667357 213.1774253 407.68299045 207.47976685 407.6678772 C196.30453352 407.635723 185.12947443 407.58453328 173.95437622 407.52139282 C173.96547928 408.68126709 173.97658234 409.84114136 173.98802185 411.03616333 C174.08950813 421.98239598 174.1643947 432.92853281 174.21343708 443.8751297 C174.23949826 449.50253451 174.2748334 455.12955864 174.33157349 460.75674438 C174.38601638 466.19028958 174.41582292 471.62346927 174.42876244 477.05726624 C174.43798021 479.1272812 174.45598058 481.19727682 174.4830265 483.26713562 C174.51947965 486.17328663 174.52431473 489.07793953 174.52200317 491.98428345 C174.53997955 492.83449066 174.55795593 493.68469788 174.57647705 494.56066895 C174.52509378 500.55568487 173.05694713 505.03641323 168.95437622 509.52139282 C164.20771965 513.58990572 158.83980391 512.94281446 152.91545105 512.90907288 C151.22480228 512.91715118 151.22480228 512.91715118 149.49999899 512.92539269 C145.71523115 512.9397245 141.93081049 512.93255545 138.14602661 512.92544556 C135.43583771 512.92950215 132.72566666 512.93800863 130.01548767 512.94624329 C123.41339047 512.96344309 116.81138839 512.96426887 110.2092746 512.95903038 C104.84330233 512.95498967 99.47735818 512.95643106 94.11138725 512.96177864 C93.34779734 512.96252706 92.58420742 512.96327548 91.79747842 512.96404659 C90.24626847 512.96557806 88.69505853 512.9671164 87.14384859 512.96866155 C72.59552838 512.98239085 58.04726195 512.97694588 43.49894296 512.96547634 C30.18868278 512.95554333 16.87856159 512.96848501 3.56832284 512.99241053 C-10.09824887 513.01679153 -23.76475583 513.02641188 -37.43134886 513.01975781 C-45.10427204 513.01626338 -52.7770883 513.01851237 -60.44999504 513.03600883 C-66.98173993 513.05071834 -73.51330261 513.05138277 -80.04504388 513.03393792 C-83.37757461 513.0254149 -86.70951185 513.02547024 -90.04206848 513.03858948 C-93.6549269 513.05172809 -97.26689533 513.04031378 -100.87971497 513.02259827 C-101.93272905 513.03220327 -102.98574313 513.04180828 -104.07066673 513.05170435 C-109.88166564 512.99292664 -113.57851862 512.62362832 -118.04562378 508.52139282 C-121.47509416 504.13209331 -122.5459065 501.30870106 -122.54898834 495.7559433 C-122.55480211 495.0974172 -122.56061587 494.43889109 -122.56660581 493.76040965 C-122.58119232 491.555973 -122.56732821 489.35265221 -122.55355835 487.14822388 C-122.55816783 485.55101817 -122.56452107 483.95381671 -122.57246733 482.35662413 C-122.58917739 477.96923941 -122.58090672 473.58220238 -122.56852245 469.19481635 C-122.55948114 464.46263244 -122.57343713 459.73050878 -122.58444214 454.99833679 C-122.60224176 445.72865859 -122.59838094 436.45910984 -122.58679157 427.18942654 C-122.57776321 419.65671483 -122.57653067 412.12403942 -122.58088684 404.59132385 C-122.58149977 403.51980433 -122.58211271 402.44828481 -122.58274421 401.344295 C-122.58402309 399.16761958 -122.58531995 396.99094417 -122.58663458 394.81426877 C-122.5980446 374.39681242 -122.58492003 353.97942786 -122.56343311 333.56198329 C-122.54556176 316.03751222 -122.54866574 298.51314713 -122.56710815 280.98867798 C-122.58850739 260.64498604 -122.59694593 240.30135705 -122.5846591 219.95765543 C-122.58338488 217.78892423 -122.5821274 215.62019301 -122.58088684 213.45146179 C-122.58026974 212.38436532 -122.57965264 211.31726884 -122.57901683 210.21783611 C-122.5755611 202.6929433 -122.58139711 195.16809037 -122.59080505 187.64320374 C-122.60201589 178.47462248 -122.59900425 169.30617823 -122.57768208 160.1376127 C-122.56715935 155.45838528 -122.56307065 150.7793864 -122.57627869 146.1001606 C-122.58818312 141.81804716 -122.5816724 137.53637448 -122.56036848 133.25430113 C-122.55589412 131.70391735 -122.55818738 130.15349647 -122.56787163 128.60313648 C-122.58001903 126.49717414 -122.56758002 124.39272547 -122.54898834 122.28684235 C-122.54833893 121.11675896 -122.54768952 119.94667558 -122.54702044 118.74113512 C-121.74988547 113.62229532 -119.20134554 110.54004311 -115.38323975 107.17477417 C-110.97968314 104.99334933 -107.4898787 104.98688453 -102.64376831 105.06729126 C-101.71630295 105.06670715 -100.78883759 105.06612305 -99.83326721 105.06552124 C-96.78127028 105.06829806 -93.73026166 105.09937143 -90.67843628 105.13076782 C-88.55709364 105.13823163 -86.4357441 105.1439239 -84.31439209 105.1479187 C-78.74114827 105.16316392 -73.16832389 105.20243653 -67.59524536 105.24673462 C-61.90428338 105.28771109 -56.21325338 105.30593482 -50.52218628 105.32608032 C-39.36314821 105.36893155 -28.20442092 105.43716972 -17.04562378 105.52139282 C-17.05450623 104.34454926 -17.06338867 103.16770569 -17.07254028 101.9552002 C-17.15364923 90.86114988 -17.21360041 79.76715978 -17.25287247 68.67288017 C-17.27374145 62.96926383 -17.30204701 57.26588697 -17.34738159 51.56240845 C-17.39086317 46.05756401 -17.41476607 40.55294985 -17.42513275 35.04794693 C-17.43251991 32.94838969 -17.44694531 30.84884497 -17.46854401 28.74938583 C-17.49760827 25.80706359 -17.50157846 22.86569114 -17.49972534 19.92324829 C-17.51410645 19.05649979 -17.52848755 18.18975128 -17.54330444 17.29673767 C-17.50652066 11.89427158 -16.75114705 8.72553821 -13.04562378 4.52139282 C-8.57742246 0.99840629 -5.66476828 0.01901771 0 0 Z M14.95437622 32.52139282 C14.95437622 56.61139282 14.95437622 80.70139282 14.95437622 105.52139282 C28.08710621 105.61270774 28.08710621 105.61270774 41.22000122 105.6390686 C42.88149419 105.66261907 44.54295822 105.6883552 46.20437622 105.71670532 C47.04871216 105.70760132 47.8930481 105.69849731 48.76296997 105.68911743 C60.0622517 105.9551761 67.02492533 115.29266811 74.54544067 122.82192993 C75.58568133 123.85617494 76.62632701 124.89001271 77.66734314 125.92347717 C80.47347757 128.71206015 83.27320513 131.50698869 86.07121682 134.30371928 C87.82231935 136.05339466 89.57484065 137.80163594 91.32787132 139.54937935 C97.45069252 145.65374352 103.56837256 151.76320545 109.68118286 157.87759399 C115.36956002 163.5671747 121.06902217 169.24548139 126.77374488 174.91866869 C131.68297869 179.80173349 136.58445252 184.69249647 141.47998017 189.58930212 C144.39902031 192.50885126 147.32105583 195.4252364 150.25094032 198.33390617 C153.00383215 201.06740259 155.74691273 203.81038079 158.48284721 206.56084633 C159.48594775 207.56603369 160.49244808 208.56784198 161.50263214 209.56591034 C170.16541289 218.13151165 173.26984897 223.61322355 173.39109802 235.91152954 C173.38992423 237.30288722 173.38846518 238.69424469 173.38674927 240.08560181 C173.3957744 241.56445633 173.40610346 243.04330338 173.41763306 244.5221405 C173.44514114 248.52161837 173.45447911 252.52095406 173.46048713 256.52051425 C173.46988697 260.70592777 173.49609164 264.89123576 173.52049255 269.07658386 C173.56411701 276.99534004 173.59268885 284.91407569 173.61581594 292.83291537 C173.64795489 303.53843522 173.70342095 314.24383279 173.75756168 324.94925976 C173.84220119 341.80660103 173.89573793 358.66389461 173.95437622 375.52139282 C198.04437622 375.52139282 222.13437622 375.52139282 246.95437622 375.52139282 C246.95437622 297.97139282 246.95437622 220.42139282 246.95437622 140.52139282 C200.42437622 140.02639282 200.42437622 140.02639282 152.95437622 139.52139282 C143.81151908 136.09282139 143.81151908 136.09282139 140.95437622 131.52139282 C140.06011704 128.83861527 139.82134813 127.26903738 139.79615784 124.51609802 C139.78638381 123.70589864 139.77660978 122.89569925 139.76653957 122.06094837 C139.75788419 120.72809567 139.75788419 120.72809567 139.74905396 119.36831665 C139.73902123 118.41638522 139.72898851 117.46445379 139.71865177 116.48367596 C139.68723949 113.39861685 139.66248429 110.31354491 139.63796997 107.22842407 C139.61956905 105.32522154 139.60073251 103.42202317 139.58145142 101.51882935 C139.51297482 94.45723311 139.45294057 87.39555705 139.39187622 80.33389282 C139.24750122 64.55576782 139.10312622 48.77764282 138.95437622 32.52139282 C98.03437622 32.52139282 57.11437622 32.52139282 14.95437622 32.52139282 Z M170.95437622 55.52139282 C170.95437622 73.01139282 170.95437622 90.50139282 170.95437622 108.52139282 C188.44437622 108.52139282 205.93437622 108.52139282 223.95437622 108.52139282 C220.35891676 104.32669011 216.93793397 100.37940215 213.06643677 96.50405884 C212.14916306 95.58363297 211.23188934 94.66320709 210.28681946 93.71488953 C209.3050392 92.73489788 208.32312804 91.75503737 207.34109497 90.77529907 C206.32058877 89.75411815 205.30023096 88.7327889 204.28001404 87.71131897 C202.1560783 85.58591821 200.03036734 83.46231384 197.90335083 81.33999634 C195.17162662 78.61401255 192.44447531 75.88350457 189.71860027 73.15167332 C187.61955157 71.04902374 185.51814284 68.9487459 183.41599464 66.84919548 C182.40849136 65.84236053 181.40173384 64.83477876 180.39572716 63.82644844 C178.99801103 62.42620893 177.59676932 61.02949127 176.19534302 59.63296509 C175.3984758 58.83689346 174.60160858 58.04082184 173.78059387 57.22062683 C172.24810721 55.40786021 172.24810721 55.40786021 170.95437622 55.52139282 Z M-90.04562378 137.52139282 C-90.04562378 250.71139282 -90.04562378 363.90139282 -90.04562378 480.52139282 C-13.48562378 480.52139282 63.07437622 480.52139282 141.95437622 480.52139282 C141.95437622 402.97139282 141.95437622 325.42139282 141.95437622 245.52139282 C95.42437622 245.02639282 95.42437622 245.02639282 47.95437622 244.52139282 C38.81151908 241.09282139 38.81151908 241.09282139 35.95437622 236.52139282 C35.06011704 233.83861527 34.82134813 232.26903738 34.79615784 229.51609802 C34.78638381 228.70589864 34.77660978 227.89569925 34.76653957 227.06094837 C34.75788419 225.72809567 34.75788419 225.72809567 34.74905396 224.36831665 C34.73902123 223.41638522 34.72898851 222.46445379 34.71865177 221.48367596 C34.68723949 218.39861685 34.66248429 215.31354491 34.63796997 212.22842407 C34.61956905 210.32522154 34.60073251 208.42202317 34.58145142 206.51882935 C34.51297482 199.45723311 34.45294057 192.39555705 34.39187622 185.33389282 C34.24750122 169.55576782 34.10312622 153.77764282 33.95437622 137.52139282 C-6.96562378 137.52139282 -47.88562378 137.52139282 -90.04562378 137.52139282 Z M65.95437622 160.52139282 C65.95437622 178.01139282 65.95437622 195.50139282 65.95437622 213.52139282 C83.44437622 213.52139282 100.93437622 213.52139282 118.95437622 213.52139282 C115.35891676 209.32669011 111.93793397 205.37940215 108.06643677 201.50405884 C107.14916306 200.58363297 106.23188934 199.66320709 105.28681946 198.71488953 C104.3050392 197.73489788 103.32312804 196.75503737 102.34109497 195.77529907 C101.32058877 194.75411815 100.30023096 193.7327889 99.28001404 192.71131897 C97.1560783 190.58591821 95.03036734 188.46231384 92.90335083 186.33999634 C90.17162662 183.61401255 87.44447531 180.88350457 84.71860027 178.15167332 C82.61955157 176.04902374 80.51814284 173.9487459 78.41599464 171.84919548 C77.40849136 170.84236053 76.40173384 169.83477876 75.39572716 168.82644844 C73.99801103 167.42620893 72.59676932 166.02949127 71.19534302 164.63296509 C70.3984758 163.83689346 69.60160858 163.04082184 68.78059387 162.22062683 C67.24810721 160.40786021 67.24810721 160.40786021 65.95437622 160.52139282 Z " fill="#000000" transform="translate(178.04562377929688,-0.521392822265625)"/>
</svg>
