<?xml version="1.0" encoding="UTF-8"?>
<svg version="1.1" xmlns="http://www.w3.org/2000/svg" width="512" height="512">
<path d="M0 0 C1.12483301 -0.00525911 1.12483301 -0.00525911 2.27238992 -0.01062447 C4.78736654 -0.01993481 7.30211143 -0.0150161 9.81709766 -0.01015663 C11.63760006 -0.01389308 13.45810084 -0.01849458 15.27859908 -0.02388728 C20.28332023 -0.03613347 25.28797461 -0.03585489 30.29270732 -0.03349853 C35.6896012 -0.03309076 41.08647355 -0.04412567 46.48335743 -0.05361366 C57.05811333 -0.0702339 67.63284693 -0.07572369 78.2076148 -0.07683842 C86.80339589 -0.07778848 95.39916962 -0.08189667 103.99494839 -0.08823967 C128.36296849 -0.10585545 152.73097098 -0.1150781 177.0989975 -0.11357872 C178.41296716 -0.11349881 179.72693683 -0.1134189 181.08072376 -0.11333656 C183.05408372 -0.11321392 183.05408372 -0.11321392 185.06730954 -0.1130888 C206.38613792 -0.11227597 227.70487328 -0.13141198 249.02368429 -0.1596133 C270.91114258 -0.18833844 292.79856641 -0.20215377 314.68604404 -0.20042574 C326.97516794 -0.19976168 339.26421777 -0.20526113 351.5533247 -0.22678185 C362.01730715 -0.24498882 372.48118197 -0.24934495 382.94517341 -0.235763 C388.28323059 -0.22923076 393.62108127 -0.22912555 398.95911884 -0.2464695 C403.84901567 -0.26219382 408.73854211 -0.25934293 413.62842987 -0.24190123 C415.39425047 -0.23882993 417.16009866 -0.24246861 418.92588671 -0.25362138 C433.84948801 -0.34161127 444.89489822 2.15698144 456.38956165 12.25726891 C463.71221789 20.04183667 469.63087442 30.04624017 469.64683056 40.96238804 C469.65327945 42.08223723 469.65972834 43.20208641 469.66637266 44.35587043 C469.66327545 45.57599351 469.66017825 46.7961166 469.65698719 48.05321312 C469.6615183 49.3573152 469.66604942 50.66141728 469.67071784 52.00503761 C469.68293901 55.61877391 469.68268841 59.23241758 469.68032908 62.84616983 C469.67992069 66.74612118 469.69096235 70.64604292 469.70044422 74.54598045 C469.71705101 82.18499459 469.72255365 89.82397786 469.72366898 97.46300855 C469.72461973 103.67416043 469.72873139 109.88530214 469.73507023 116.09645081 C469.75268279 133.71329388 469.76190923 151.33011259 469.76040928 168.94696452 C469.76028941 170.37129884 469.76028941 170.37129884 469.76016712 171.82440758 C469.76008536 172.77512588 469.7600036 173.72584418 469.75991936 174.70537213 C469.75910675 190.10733406 469.77823805 205.50919813 469.80644386 220.91113176 C469.83518899 236.73268542 469.84898321 252.55419139 469.8472563 268.37577182 C469.8465929 277.25553476 469.8520632 286.13519515 469.8736124 295.01493454 C469.89184579 302.57672392 469.89615396 310.13836426 469.88259356 317.70016613 C469.87607437 321.55575724 469.87590832 325.41106263 469.89330006 329.26662636 C469.91199106 333.45343473 469.89944877 337.63958481 469.88403797 341.82640648 C469.8943251 343.03537596 469.90461222 344.24434544 469.91521108 345.48995036 C469.81243961 358.14854235 465.73052573 367.7648089 457.38956165 377.25726891 C448.82064494 385.31773332 438.66590547 390.58533068 426.77912331 390.51453781 C426.02923463 390.51804389 425.27934596 390.52154996 424.50673339 390.52516228 C421.99175676 390.53447263 419.47701188 390.52955392 416.96202564 390.52469444 C415.14152325 390.52843089 413.32102246 390.53303239 411.50052422 390.53842509 C406.49580308 390.55067129 401.4911487 390.5503927 396.48641598 390.54803634 C391.08952211 390.54762858 385.69264975 390.55866348 380.29576588 390.56815147 C369.72100998 390.58477171 359.14627637 390.5902615 348.5715085 390.59137623 C339.97572741 390.59232629 331.37995368 390.59643448 322.78417492 390.60277748 C298.41615481 390.62039326 274.04815233 390.62961591 249.68012581 390.62811653 C248.36615614 390.62803662 247.05218647 390.62795671 245.69839954 390.62787437 C244.38282624 390.62779261 243.06725293 390.62771085 241.71181377 390.62762661 C220.39298538 390.62681378 199.07425002 390.6459498 177.75543902 390.67415111 C155.86798073 390.70287625 133.9805569 390.71669158 112.09307927 390.71496356 C99.80395537 390.71429949 87.51490553 390.71979894 75.22579861 390.74131966 C64.76181615 390.75952663 54.29794133 390.76388276 43.8339499 390.75030081 C38.49589271 390.74376857 33.15804204 390.74366336 27.82000446 390.76100731 C22.93010764 390.77673163 18.04058119 390.77388074 13.15069344 390.75643905 C11.38487284 390.75336775 9.61902464 390.75700642 7.85323659 390.7681592 C-7.0703647 390.85614909 -18.11577491 388.35755637 -29.61043835 378.25726891 C-36.93309459 370.47270114 -42.85175111 360.46829764 -42.86770725 349.55214977 C-42.87415614 348.43230058 -42.88060504 347.3124514 -42.88724935 346.15866739 C-42.88415215 344.9385443 -42.88105494 343.71842121 -42.87786388 342.46132469 C-42.882395 341.15722261 -42.88692611 339.85312053 -42.89159453 338.50950021 C-42.9038157 334.8957639 -42.90356511 331.28212023 -42.90120578 327.66836798 C-42.90079738 323.76841663 -42.91183904 319.86849489 -42.92132092 315.96855736 C-42.93792771 308.32954322 -42.94343034 300.69055995 -42.94454567 293.05152927 C-42.94549642 286.84037738 -42.94960808 280.62923567 -42.95594692 274.41808701 C-42.97355949 256.80124394 -42.98278592 239.18442522 -42.98128597 221.56757329 C-42.98120606 220.61801708 -42.98112615 219.66846087 -42.98104382 218.69013023 C-42.98096205 217.73941193 -42.98088029 216.78869363 -42.98079605 215.80916568 C-42.97998344 200.40720375 -42.99911475 185.00533968 -43.02732055 169.60340605 C-43.05606569 153.78185239 -43.0698599 137.96034642 -43.068133 122.13876599 C-43.06746959 113.25900305 -43.07293989 104.37934266 -43.0944891 95.49960327 C-43.11272248 87.9378139 -43.11703065 80.37617355 -43.10347025 72.81437168 C-43.09695107 68.95878057 -43.09678501 65.10347519 -43.11417675 61.24791145 C-43.13286776 57.06110308 -43.12032546 52.874953 -43.10491467 48.68813133 C-43.11520179 47.47916185 -43.12548892 46.27019237 -43.13608778 45.02458745 C-43.0333163 32.36599546 -38.95140242 22.74972891 -30.61043835 13.25726891 C-22.04152164 5.1968045 -11.88678216 -0.07079287 0 0 Z M-7.42293835 34.69476891 C-11.86871372 39.9026772 -12.73385771 43.8334464 -12.7390728 50.53816605 C-12.74229725 51.58882307 -12.74552169 52.63948009 -12.74884385 53.72197521 C-12.74729525 54.86992065 -12.74574664 56.01786609 -12.74415112 57.20059776 C-12.74641667 58.42499663 -12.74868223 59.64939551 -12.75101644 60.91089737 C-12.75625274 64.306576 -12.75700113 67.70220169 -12.75582206 71.0978806 C-12.755618 74.76122304 -12.76113736 78.42455759 -12.76587963 82.08789635 C-12.77418528 89.26381687 -12.77693443 96.43972917 -12.77749201 103.6156541 C-12.77796719 109.44833309 -12.78002201 115.28100938 -12.78319263 121.11368752 C-12.79199877 137.64994703 -12.79661204 154.18620005 -12.79586216 170.72246192 C-12.7958222 171.61389452 -12.79578225 172.50532711 -12.79574108 173.42377281 C-12.7957002 174.31629356 -12.79565932 175.20881431 -12.7956172 176.12838115 C-12.79521068 190.59543171 -12.80478177 205.06245625 -12.81887945 219.52949928 C-12.83324022 234.38370623 -12.84014981 249.23790049 -12.83928567 264.09211457 C-12.83895361 272.43182354 -12.8417047 280.77150524 -12.85246372 289.11120796 C-12.86156475 296.2112383 -12.86374722 303.31122898 -12.8569543 310.41126262 C-12.85368716 314.03336893 -12.8536394 317.65539915 -12.86230755 321.27749825 C-12.87160993 325.20502508 -12.8654016 329.13244053 -12.85767651 333.05997276 C-12.86282007 334.20345676 -12.86796363 335.34694076 -12.87326306 336.52507579 C-12.90287555 346.54532431 -12.90287555 346.54532431 -8.17293835 355.06976891 C-2.32489498 360.06200105 2.05286474 360.38175107 9.57577801 360.38590336 C10.65002662 360.38853291 10.65002662 360.38853291 11.74597722 360.39121559 C14.15216487 360.39587741 16.55829213 360.39340962 18.96448231 360.39098167 C20.70447499 360.39284955 22.44446726 360.39515016 24.18445885 360.397847 C28.97111674 360.40397422 33.75775718 360.40383032 38.5444181 360.40265262 C43.70470592 360.40244885 48.86498811 360.40796511 54.02527332 360.41271019 C64.13693657 360.42102222 74.24859398 360.42376527 84.36026035 360.42432257 C92.57756945 360.42479744 100.79487661 360.42685074 109.0121851 360.43002319 C132.29962267 360.43883106 155.58705564 360.44344233 178.8744949 360.44269272 C180.13034095 360.44265276 181.386187 360.44261281 182.680089 360.44257164 C183.93746475 360.44253076 185.1948405 360.44248988 186.49031855 360.44244776 C206.87423757 360.44204119 227.25813812 360.45161317 247.6420518 360.46571001 C268.56216478 360.48006375 289.48226875 360.48698075 310.40238678 360.48611623 C322.15146516 360.48578393 333.90052418 360.48854561 345.64959812 360.49929428 C355.65183064 360.50838608 365.65403503 360.5105854 375.65626989 360.50378486 C380.76086321 360.50051305 385.86540251 360.50048677 390.96999073 360.50913811 C395.64189173 360.5169748 400.31369562 360.51560074 404.98559417 360.50685398 C406.67667559 360.50531273 408.36776416 360.50715852 410.05883716 360.51271405 C412.35656356 360.51976325 414.65394826 360.51448916 416.95166302 360.50615788 C418.86651416 360.50648393 418.86651416 360.50648393 420.82004917 360.50681657 C426.14952967 360.13422804 430.12679593 359.35166586 434.20206165 355.81976891 C438.64783703 350.61186061 439.51298102 346.68109141 439.51819611 339.97637177 C439.52142055 338.92571474 439.524645 337.87505772 439.52796715 336.7925626 C439.52641855 335.64461716 439.52486995 334.49667172 439.52327442 333.31394005 C439.52553998 332.08954118 439.52780553 330.8651423 439.53013974 329.60364044 C439.53537605 326.20796181 439.53612444 322.81233612 439.53494537 319.41665721 C439.5347413 315.75331477 439.54026067 312.08998023 439.54500294 308.42664146 C439.55330858 301.25072094 439.55605773 294.07480864 439.55661532 286.89888372 C439.55709049 281.06620472 439.55914532 275.23352843 439.56231594 269.4008503 C439.57112208 252.86459078 439.57573535 236.32833776 439.57498547 219.79207589 C439.57494551 218.90064329 439.57490555 218.0092107 439.57486439 217.090765 C439.57482351 216.19824425 439.57478263 215.3057235 439.57474051 214.38615666 C439.57433399 199.9191061 439.58390508 185.45208157 439.59800275 170.98503853 C439.61236352 156.13083158 439.61927311 141.27663732 439.61840898 126.42242324 C439.61807692 118.08271427 439.62082801 109.74303257 439.63158703 101.40332985 C439.64068806 94.30329952 439.64287053 87.20330883 439.63607761 80.10327519 C439.63281046 76.48116888 439.63276271 72.85913866 439.64143085 69.23703957 C439.65073324 65.30951273 439.6445249 61.38209728 439.63679981 57.45456505 C439.64451516 55.73933905 439.64451516 55.73933905 439.65238637 53.98946202 C439.68199886 43.9692135 439.68199886 43.9692135 434.95206165 35.44476891 C429.10401828 30.45253676 424.72625857 30.13278674 417.2033453 30.12863445 C416.48717956 30.12688142 415.77101382 30.12512838 415.03314608 30.12332222 C412.62695844 30.11866041 410.22083118 30.12112819 407.814641 30.12355614 C406.07464832 30.12168826 404.33465605 30.11938765 402.59466445 30.11669081 C397.80800657 30.11056359 393.02136612 30.11070749 388.23470521 30.11188519 C383.07441738 30.11208896 377.91413519 30.1065727 372.75384998 30.10182762 C362.64218674 30.09351559 352.53052933 30.09077254 342.41886295 30.09021524 C334.20155386 30.08974037 325.98424669 30.08768707 317.76693821 30.08451462 C294.47950063 30.07570676 271.19206767 30.07109548 247.90462841 30.07184509 C246.02085933 30.07190503 246.02085933 30.07190503 244.09903431 30.07196617 C242.84165856 30.07200705 241.5842828 30.07204793 240.28880475 30.07209005 C219.90488574 30.07249662 199.52098518 30.06292464 179.13707151 30.0488278 C158.21695852 30.03447406 137.29685455 30.02755706 116.37673652 30.02842158 C104.62765815 30.02875388 92.87859913 30.0259922 81.12952518 30.01524353 C71.12729266 30.00615173 61.12508827 30.00395241 51.12285341 30.01075295 C46.0182601 30.01402476 40.9137208 30.01405104 35.80913258 30.0053997 C31.13723158 29.99756301 26.46542769 29.99893707 21.79352914 30.00768384 C20.10244771 30.00922508 18.41135915 30.00737929 16.72028615 30.00182376 C14.42255975 29.99477456 12.12517505 30.00004865 9.82746029 30.00837994 C7.91260915 30.00805388 7.91260915 30.00805388 5.95907414 30.00772125 C0.62959363 30.38030977 -3.34767263 31.16287195 -7.42293835 34.69476891 Z " fill="#000000" transform="translate(42.61043834686279,60.74273109436035)"/>
<path d="M0 0 C12.67509386 9.86461049 22.25717381 22.85371895 25 39 C26.57180562 56.85760429 24.19779234 73.18170456 12.9296875 87.66015625 C3.17019056 98.93288529 -7.80954482 105.46841536 -22 110 C-20.97003906 110.1959375 -19.94007813 110.391875 -18.87890625 110.59375 C-3.16023789 113.80529115 10.51695593 119.77717487 23 130 C23.71414062 130.56332031 24.42828125 131.12664062 25.1640625 131.70703125 C41.27635525 144.98878608 52.2467511 166.45095468 55 187 C55.45724689 192.55502581 55.47503848 198.11666267 55.44604492 203.68725586 C55.43747328 206.19531882 55.46651858 208.70114097 55.49804688 211.20898438 C55.56230348 225.55619964 52.6968716 235.96444524 43 247 C37.97994372 251.72218208 32.38381745 255.39461222 26 258 C25.18705978 258.34100739 24.37411957 258.68201477 23.5365448 259.03335571 C18.77658208 260.33439699 14.30886512 260.29502667 9.39575195 260.29052734 C7.8116024 260.30060318 7.8116024 260.30060318 6.19544983 260.31088257 C2.70967886 260.32985413 -0.77589939 260.33378668 -4.26171875 260.3359375 C-6.69301939 260.34236707 -9.12431926 260.34909555 -11.55561829 260.35610962 C-16.65225009 260.36808106 -21.74881412 260.37179068 -26.84545898 260.37060547 C-33.35740996 260.37040254 -39.86892327 260.39767917 -46.38077068 260.43214989 C-51.40385408 260.45445528 -56.42683287 260.45844185 -61.44996071 260.45738602 C-63.84959226 260.45973746 -66.24922689 260.46853509 -68.64880943 260.48405075 C-72.01577186 260.50377928 -75.38179987 260.49784458 -78.7487793 260.48583984 C-79.72838623 260.49707886 -80.70799316 260.50831787 -81.71728516 260.51989746 C-93.624279 260.41272287 -103.13734274 255.78756042 -112 248 C-120.33056053 239.14394956 -125.29948901 228.93098697 -125.3359375 216.69921875 C-125.3459227 215.50725639 -125.3459227 215.50725639 -125.35610962 214.29121399 C-125.3662045 212.60944922 -125.37092762 210.92764465 -125.37060547 209.24584961 C-125.37492212 206.73284156 -125.41111393 204.22167557 -125.44921875 201.70898438 C-125.54939444 187.59395148 -123.71742463 173.87741365 -117.25 161.125 C-116.90783447 160.42576416 -116.56566895 159.72652832 -116.21313477 159.00610352 C-113.10829147 152.84819978 -109.37025715 147.33650061 -105 142 C-104.15501953 140.92878906 -104.15501953 140.92878906 -103.29296875 139.8359375 C-89.56053296 123.17691703 -68.81475375 113.78729987 -48 110 C-49.25103516 109.54560547 -49.25103516 109.54560547 -50.52734375 109.08203125 C-68.26197132 102.47979304 -81.93875965 92.93155514 -90.3125 75.4375 C-96.73117875 61.3515776 -97.70714986 43.40515188 -92.25390625 28.8125 C-84.81416739 12.12523527 -73.9475766 0.8437771 -57.30859375 -6.73828125 C-38.40685143 -13.94638369 -16.7288149 -11.18568604 0 0 Z M-57.5 30.3125 C-58.84350434 32.09338765 -58.84350434 32.09338765 -60 34 C-60.40992187 34.64453125 -60.81984375 35.2890625 -61.2421875 35.953125 C-64.81933273 42.61401612 -65.05748044 49.61378165 -64 57 C-61.51688537 64.53708645 -57.79788029 70.75834742 -51 75 C-50.35546875 75.40992188 -49.7109375 75.81984375 -49.046875 76.2421875 C-42.38598388 79.81933273 -35.38621835 80.05748044 -28 79 C-20.46291355 76.51688537 -14.24165258 72.79788029 -10 66 C-9.59007812 65.35546875 -9.18015625 64.7109375 -8.7578125 64.046875 C-5.18066727 57.38598388 -4.94251956 50.38621835 -6 43 C-8.48311463 35.46291355 -12.20211971 29.24165258 -19 25 C-19.64453125 24.59007812 -20.2890625 24.18015625 -20.953125 23.7578125 C-33.10301727 17.23287035 -48.19512191 20.35628045 -57.5 30.3125 Z M-81.0078125 162.2265625 C-93.44572378 177.46434991 -96.22448834 195.80251324 -95 215 C-93.42752237 221.91890156 -90.88316548 225.07788968 -85 229 C-80.5015324 230.29314365 -75.92365625 230.14785249 -71.28173828 230.14526367 C-69.98077713 230.15030159 -69.98077713 230.15030159 -68.65353394 230.15544128 C-65.79244547 230.16492367 -62.93141569 230.16689301 -60.0703125 230.16796875 C-58.0764056 230.17118313 -56.08249894 230.17454734 -54.08859253 230.17805481 C-49.91078139 230.18403923 -45.73299091 230.18589541 -41.55517578 230.18530273 C-36.20989152 230.18520113 -30.86474015 230.19885447 -25.51948738 230.21607494 C-21.401595 230.22720979 -17.2837346 230.22922149 -13.1658287 230.22869301 C-11.19552019 230.22987084 -9.22521079 230.23428154 -7.25491714 230.24202538 C-4.49553444 230.2518555 -1.73643839 230.24893531 1.02294922 230.24291992 C2.23576569 230.25134918 2.23576569 230.25134918 3.4730835 230.25994873 C9.64040211 230.22589615 14.98389972 229.74728691 19.8125 225.5625 C26.9590429 217.19083546 25.46353875 206.54251831 24.7265625 196.140625 C22.8231934 178.83074 15.53018126 164.19502307 2 153 C-25.09082076 133.12853659 -58.82137401 137.62292449 -81.0078125 162.2265625 Z " fill="#000000" transform="translate(185,131)"/>
<path d="M0 0 C0.66157421 -0.00538554 1.32314842 -0.01077108 2.00477034 -0.01631981 C4.21419181 -0.03058919 6.42301327 -0.02349858 8.63246155 -0.01637268 C10.21950766 -0.02207681 11.80654966 -0.02904124 13.39358521 -0.03717041 C17.69939896 -0.05511237 22.00500904 -0.0539315 26.31084895 -0.04822803 C29.90681919 -0.04513764 33.50275023 -0.05122696 37.09871489 -0.05726677 C45.5826532 -0.07131382 54.06649081 -0.06974925 62.5504303 -0.05836487 C71.30000836 -0.04688341 80.04927991 -0.0609593 88.79881757 -0.08776134 C96.31404622 -0.10991961 103.82917866 -0.11655544 111.34443766 -0.11068493 C115.83158715 -0.10731445 120.31854016 -0.10973642 124.80566216 -0.12693596 C129.02551296 -0.14240508 133.24490979 -0.13845015 137.46474266 -0.11963081 C139.01189334 -0.11594481 140.55907766 -0.11905381 142.10619736 -0.1295166 C144.22162969 -0.14272863 146.3355595 -0.13117987 148.45092773 -0.11352539 C149.63354659 -0.11331611 150.81616545 -0.11310682 152.03462124 -0.1128912 C156.93580032 0.64099239 160.11970852 2.88224342 163.13661194 6.7665863 C165.2246425 11.51597108 164.90816526 16.31016157 164.28895569 21.38768005 C162.10740099 25.99318442 159.80700056 28.15400551 155.28895569 30.38768005 C152.16046238 30.76799679 152.16046238 30.76799679 148.57791138 30.77536011 C147.91633717 30.78074565 147.25476295 30.78613118 146.57314104 30.79167992 C144.36371957 30.8059493 142.1548981 30.79885869 139.94544983 30.79173279 C138.35840372 30.79743692 136.77136171 30.80440135 135.18432617 30.81253052 C130.87851242 30.83047248 126.57290234 30.8292916 122.26706243 30.82358813 C118.67109219 30.82049775 115.07516115 30.82658707 111.47919649 30.83262688 C102.99525818 30.84667393 94.51142056 30.84510935 86.02748108 30.83372498 C77.27790302 30.82224352 68.52863147 30.83631941 59.7790938 30.86312145 C52.26386515 30.88527972 44.74873271 30.89191555 37.23347372 30.88604504 C32.74632423 30.88267456 28.25937122 30.88509653 23.77224922 30.90229607 C19.55239841 30.91776519 15.33300159 30.91381025 11.11316872 30.89499092 C9.56601803 30.89130491 8.01883372 30.89441392 6.47171402 30.90487671 C4.35628169 30.91808874 2.24235187 30.90653997 0.12698364 30.8888855 C-1.05563521 30.88867621 -2.23825407 30.88846693 -3.45670986 30.8882513 C-8.35788895 30.13436771 -11.54179714 27.89311669 -14.55870056 24.0087738 C-16.64673113 19.25938903 -16.33025388 14.46519854 -15.71104431 9.38768005 C-12.32061534 2.23010779 -7.71294786 0.01585264 0 0 Z " fill="#000000" transform="translate(287.71104431152344,330.61231994628906)"/>
<path d="M0 0 C0.66157421 -0.00538554 1.32314842 -0.01077108 2.00477034 -0.01631981 C4.21419181 -0.03058919 6.42301327 -0.02349858 8.63246155 -0.01637268 C10.21950766 -0.02207681 11.80654966 -0.02904124 13.39358521 -0.03717041 C17.69939896 -0.05511237 22.00500904 -0.0539315 26.31084895 -0.04822803 C29.90681919 -0.04513764 33.50275023 -0.05122696 37.09871489 -0.05726677 C45.5826532 -0.07131382 54.06649081 -0.06974925 62.5504303 -0.05836487 C71.30000836 -0.04688341 80.04927991 -0.0609593 88.79881757 -0.08776134 C96.31404622 -0.10991961 103.82917866 -0.11655544 111.34443766 -0.11068493 C115.83158715 -0.10731445 120.31854016 -0.10973642 124.80566216 -0.12693596 C129.02551296 -0.14240508 133.24490979 -0.13845015 137.46474266 -0.11963081 C139.01189334 -0.11594481 140.55907766 -0.11905381 142.10619736 -0.1295166 C144.22162969 -0.14272863 146.3355595 -0.13117987 148.45092773 -0.11352539 C149.63354659 -0.11331611 150.81616545 -0.11310682 152.03462124 -0.1128912 C156.93580032 0.64099239 160.11970852 2.88224342 163.13661194 6.7665863 C165.2246425 11.51597108 164.90816526 16.31016157 164.28895569 21.38768005 C162.10740099 25.99318442 159.80700056 28.15400551 155.28895569 30.38768005 C152.16046238 30.76799679 152.16046238 30.76799679 148.57791138 30.77536011 C147.91633717 30.78074565 147.25476295 30.78613118 146.57314104 30.79167992 C144.36371957 30.8059493 142.1548981 30.79885869 139.94544983 30.79173279 C138.35840372 30.79743692 136.77136171 30.80440135 135.18432617 30.81253052 C130.87851242 30.83047248 126.57290234 30.8292916 122.26706243 30.82358813 C118.67109219 30.82049775 115.07516115 30.82658707 111.47919649 30.83262688 C102.99525818 30.84667393 94.51142056 30.84510935 86.02748108 30.83372498 C77.27790302 30.82224352 68.52863147 30.83631941 59.7790938 30.86312145 C52.26386515 30.88527972 44.74873271 30.89191555 37.23347372 30.88604504 C32.74632423 30.88267456 28.25937122 30.88509653 23.77224922 30.90229607 C19.55239841 30.91776519 15.33300159 30.91381025 11.11316872 30.89499092 C9.56601803 30.89130491 8.01883372 30.89441392 6.47171402 30.90487671 C4.35628169 30.91808874 2.24235187 30.90653997 0.12698364 30.8888855 C-1.05563521 30.88867621 -2.23825407 30.88846693 -3.45670986 30.8882513 C-8.35788895 30.13436771 -11.54179714 27.89311669 -14.55870056 24.0087738 C-16.64673113 19.25938903 -16.33025388 14.46519854 -15.71104431 9.38768005 C-12.32061534 2.23010779 -7.71294786 0.01585264 0 0 Z " fill="#000000" transform="translate(287.71104431152344,270.61231994628906)"/>
<path d="M0 0 C0.66157421 -0.00538554 1.32314842 -0.01077108 2.00477034 -0.01631981 C4.21419181 -0.03058919 6.42301327 -0.02349858 8.63246155 -0.01637268 C10.21950766 -0.02207681 11.80654966 -0.02904124 13.39358521 -0.03717041 C17.69939896 -0.05511237 22.00500904 -0.0539315 26.31084895 -0.04822803 C29.90681919 -0.04513764 33.50275023 -0.05122696 37.09871489 -0.05726677 C45.5826532 -0.07131382 54.06649081 -0.06974925 62.5504303 -0.05836487 C71.30000836 -0.04688341 80.04927991 -0.0609593 88.79881757 -0.08776134 C96.31404622 -0.10991961 103.82917866 -0.11655544 111.34443766 -0.11068493 C115.83158715 -0.10731445 120.31854016 -0.10973642 124.80566216 -0.12693596 C129.02551296 -0.14240508 133.24490979 -0.13845015 137.46474266 -0.11963081 C139.01189334 -0.11594481 140.55907766 -0.11905381 142.10619736 -0.1295166 C144.22162969 -0.14272863 146.3355595 -0.13117987 148.45092773 -0.11352539 C149.63354659 -0.11331611 150.81616545 -0.11310682 152.03462124 -0.1128912 C156.93580032 0.64099239 160.11970852 2.88224342 163.13661194 6.7665863 C165.2246425 11.51597108 164.90816526 16.31016157 164.28895569 21.38768005 C162.10740099 25.99318442 159.80700056 28.15400551 155.28895569 30.38768005 C152.16046238 30.76799679 152.16046238 30.76799679 148.57791138 30.77536011 C147.91633717 30.78074565 147.25476295 30.78613118 146.57314104 30.79167992 C144.36371957 30.8059493 142.1548981 30.79885869 139.94544983 30.79173279 C138.35840372 30.79743692 136.77136171 30.80440135 135.18432617 30.81253052 C130.87851242 30.83047248 126.57290234 30.8292916 122.26706243 30.82358813 C118.67109219 30.82049775 115.07516115 30.82658707 111.47919649 30.83262688 C102.99525818 30.84667393 94.51142056 30.84510935 86.02748108 30.83372498 C77.27790302 30.82224352 68.52863147 30.83631941 59.7790938 30.86312145 C52.26386515 30.88527972 44.74873271 30.89191555 37.23347372 30.88604504 C32.74632423 30.88267456 28.25937122 30.88509653 23.77224922 30.90229607 C19.55239841 30.91776519 15.33300159 30.91381025 11.11316872 30.89499092 C9.56601803 30.89130491 8.01883372 30.89441392 6.47171402 30.90487671 C4.35628169 30.91808874 2.24235187 30.90653997 0.12698364 30.8888855 C-1.05563521 30.88867621 -2.23825407 30.88846693 -3.45670986 30.8882513 C-8.35788895 30.13436771 -11.54179714 27.89311669 -14.55870056 24.0087738 C-16.64673113 19.25938903 -16.33025388 14.46519854 -15.71104431 9.38768005 C-12.32061534 2.23010779 -7.71294786 0.01585264 0 0 Z " fill="#000000" transform="translate(287.71104431152344,210.61231994628906)"/>
<path d="M0 0 C1.47893486 -0.01029488 1.47893486 -0.01029488 2.98774719 -0.02079773 C6.24336187 -0.03908255 9.49849543 -0.03522571 12.75415039 -0.02954102 C15.01949724 -0.03410201 17.28484271 -0.03940733 19.55018616 -0.04542542 C24.29718651 -0.05435985 29.04401865 -0.05192951 33.79101562 -0.04199219 C39.87194057 -0.03050244 45.95228485 -0.05071291 52.03313351 -0.07990932 C56.71118351 -0.09826213 61.38909413 -0.09798065 66.0671711 -0.0922718 C68.30904518 -0.09211848 70.55092864 -0.09817221 72.79276848 -0.11056328 C75.92862164 -0.12545354 79.06339907 -0.11480987 82.19921875 -0.09765625 C83.1235672 -0.10732422 84.04791565 -0.11699219 85.00027466 -0.12695312 C90.55057242 -0.06343101 93.77461631 0.6753459 98.16430664 4.40405273 C102.22061062 9.62665131 101.93828208 15.05745416 101.16430664 21.40405273 C98.99265771 25.98864491 96.73409543 28.2917682 92.16430664 30.40405273 C88.88568641 30.84651422 85.6330172 30.82416301 82.32861328 30.80810547 C80.84967842 30.81840034 80.84967842 30.81840034 79.34086609 30.8289032 C76.08525141 30.84718801 72.83011785 30.84333118 69.57446289 30.83764648 C67.30911604 30.84220747 65.04377057 30.8475128 62.77842712 30.85353088 C58.03142677 30.86246532 53.28459463 30.86003498 48.53759766 30.85009766 C42.45667271 30.83860791 36.37632844 30.85881838 30.29547977 30.88801479 C25.61742977 30.9063676 20.93951915 30.90608612 16.26144218 30.90037727 C14.0195681 30.90022395 11.77768464 30.90627767 9.5358448 30.91866875 C6.39999164 30.933559 3.26521421 30.92291534 0.12939453 30.90576172 C-0.79495392 30.91542969 -1.71930237 30.92509766 -2.67166138 30.93505859 C-8.22195914 30.87153648 -11.44600303 30.13275957 -15.83569336 26.40405273 C-19.89199734 21.18145416 -19.6096688 15.75065131 -18.83569336 9.40405273 C-14.71034071 0.69497492 -8.7737284 -0.04263536 0 0 Z " fill="#000000" transform="translate(320.835693359375,150.595947265625)"/>
</svg>
