<?xml version="1.0" encoding="UTF-8"?>
<svg version="1.1" xmlns="http://www.w3.org/2000/svg" width="512" height="512">
<path d="M0 0 C1.35955811 0.40484619 1.35955811 0.40484619 2.74658203 0.81787109 C37.47580418 11.44680765 66.82456576 29.71898562 93.125 54.5 C93.90746094 55.22832031 94.68992187 55.95664063 95.49609375 56.70703125 C102.11040753 63.06196018 107.60540456 70.20330215 113.125 77.5 C113.83785156 78.42941406 114.55070313 79.35882813 115.28515625 80.31640625 C149.14221373 125.48158631 161.54089984 182.78949451 154.1015625 238.23046875 C147.04590456 285.9328518 123.62649224 328.22100158 89.125 361.5 C94.89866502 368.54033642 101.40414644 374.82536402 107.90429688 381.18334961 C109.38331683 382.63215149 110.85603676 384.08712904 112.328125 385.54296875 C113.20114258 386.39914795 114.07416016 387.25532715 114.97363281 388.13745117 C118.82537314 392.36728449 119.6211482 395.70118548 119.51953125 401.30859375 C118.88507457 404.83265514 116.88473131 406.39734758 114.125 408.5 C110.67741238 410.22379381 106.70069419 409.66577607 102.90527344 409.67700195 C101.94901566 409.68357315 100.99275787 409.69014435 100.00752258 409.69691467 C96.83313931 409.71667505 93.65880343 409.72831672 90.484375 409.73828125 C89.40147438 409.74235678 88.31857376 409.7464323 87.20285797 409.75063133 C81.47068979 409.77150431 75.73854564 409.78580041 70.00634766 409.79516602 C64.08344735 409.80622965 58.16092283 409.84062581 52.23815536 409.88033772 C47.68623147 409.90647681 43.13439744 409.91485549 38.58240509 409.91844749 C36.39912632 409.92332087 34.21585176 409.93495614 32.03264618 409.95348549 C28.97556258 409.97781754 25.91945536 409.97692244 22.86230469 409.9699707 C21.51079063 409.98918579 21.51079063 409.98918579 20.13197327 410.00878906 C14.51017189 409.96222576 11.43852664 409.18371742 7.125 405.5 C5.986798 403.22359601 5.99004768 401.95016398 5.97109985 399.42082214 C5.96249939 398.5670549 5.95389893 397.71328766 5.94503784 396.83364868 C5.94077789 395.89491913 5.93651794 394.95618958 5.93212891 393.98901367 C5.91986267 392.50832649 5.91986267 392.50832649 5.90734863 390.99772644 C5.88247408 387.72114677 5.86597402 384.44461046 5.8515625 381.16796875 C5.84623882 380.05072229 5.84091515 378.93347584 5.83543015 377.78237343 C5.80869063 371.86981517 5.78931757 365.95727809 5.77490234 360.04467773 C5.75824529 353.93103067 5.7134604 347.8179217 5.6625309 341.70447826 C5.62891201 337.009337 5.61733079 332.31432434 5.61167526 327.61907387 C5.60494885 325.36517534 5.58969099 323.11128567 5.56578445 320.85750389 C5.53424361 317.70427674 5.5340798 314.55251273 5.54150391 311.39916992 C5.52509857 310.46651306 5.50869324 309.5338562 5.49179077 308.57293701 C5.53576012 304.01542938 5.6351955 302.12358069 8.53475952 298.43208313 C10.92562469 296.64871579 12.15014173 295.78587566 15.0625 295.5 C15.69027344 295.4175 16.31804687 295.335 16.96484375 295.25 C23.69012936 296.02833324 28.02174592 300.99681133 32.4921875 305.57421875 C33.17177521 306.2580513 33.85136292 306.94188385 34.55154419 307.6464386 C36.70820894 309.81981867 38.8541734 312.0034238 41 314.1875 C42.4654504 315.6680064 43.93158906 317.14783186 45.3984375 318.62695312 C48.9819759 322.24346602 52.55595804 325.8691825 56.125 329.5 C78.6856489 318.68084391 94.658583 283.05409788 102.68212891 260.77246094 C117.22910646 218.21291316 113.49158751 171.88389104 94.1796875 131.52441406 C83.22138994 109.24031505 67.00988317 88.46075108 47.125 73.5 C46.07957031 72.70078125 45.03414063 71.9015625 43.95703125 71.078125 C25.35993303 57.14660504 4.42790316 47.46108374 -18.07763672 41.75292969 C-25.25964381 39.80521604 -31.3825266 36.33617081 -35.375 29.875 C-37.9058476 23.97722121 -37.94881427 17.29965049 -36.21484375 11.1640625 C-33.52704753 5.09034116 -28.96910973 1.01267587 -23.0625 -1.875 C-15.01502149 -3.45293696 -7.76014228 -2.36061832 0 0 Z " fill="#000000" transform="translate(313.875,49.5)"/>
<path d="M0 0 C0.95786407 -0.0049649 1.91572815 -0.00992981 2.90261841 -0.01504517 C6.08181468 -0.02968933 9.26096104 -0.03647276 12.44018555 -0.04199219 C14.64495343 -0.04774205 16.84972129 -0.05349981 19.05448914 -0.05926514 C23.68232456 -0.06978173 28.31014258 -0.07562 32.93798828 -0.07910156 C38.86988616 -0.08458579 44.80155445 -0.10860965 50.73338032 -0.13707352 C55.28955254 -0.15569209 59.8456694 -0.1609051 64.40187645 -0.16243744 C66.58875979 -0.16546657 68.77564209 -0.1735038 70.96248817 -0.18662262 C74.02204497 -0.20366554 77.08104008 -0.20180694 80.140625 -0.1953125 C81.04522964 -0.20452728 81.94983429 -0.21374207 82.8818512 -0.22323608 C87.65411615 -0.19148223 90.92463039 0.00124497 94.7644043 3.16113281 C96.80884619 6.22779565 97.0166611 6.85850386 97.03855896 10.31587219 C97.04853409 11.16115479 97.05850922 12.00643738 97.06878662 12.87733459 C97.06945129 13.80154709 97.07011597 14.72575958 97.07080078 15.67797852 C97.0791243 16.65388947 97.08744781 17.62980042 97.09602356 18.63528442 C97.12016591 21.86920128 97.12890122 25.10291657 97.13549805 28.33691406 C97.14446168 30.58269818 97.15358347 32.82848167 97.16285706 35.07426453 C97.1793615 39.78609673 97.18704973 44.49785775 97.18994141 49.2097168 C97.19532435 55.24592629 97.23299521 61.2814663 97.27868557 67.31748676 C97.30843725 71.95778339 97.31566457 76.59791851 97.31666756 81.23830223 C97.32087416 83.46345267 97.33332599 85.6886034 97.3541851 87.91366005 C97.38105711 91.02830734 97.37628564 94.14139928 97.36376953 97.25610352 C97.38602097 98.63331322 97.38602097 98.63331322 97.40872192 100.03834534 C97.35902039 104.38429489 97.13581251 107.26865666 94.35365295 110.72331238 C90.89587411 113.97886835 90.89587411 113.97886835 87.8269043 114.22363281 C87.19913086 114.29710937 86.57135742 114.37058594 85.92456055 114.44628906 C79.19168361 113.55750061 74.89461981 108.69192803 70.3972168 104.08691406 C69.71762909 103.40308151 69.03804138 102.71924896 68.33786011 102.01469421 C66.18119536 99.84131414 64.0352309 97.65770901 61.8894043 95.47363281 C60.4239539 93.99312642 58.95781523 92.51330095 57.4909668 91.03417969 C53.90742839 87.41766679 50.33344626 83.79195031 46.7644043 80.16113281 C24.64269677 90.76979074 8.97088492 124.90924997 0.85083008 146.80664062 C-2.27348313 155.72031267 -4.34264477 164.9195232 -6.2355957 174.16113281 C-6.6087793 175.96904297 -6.6087793 175.96904297 -6.98950195 177.81347656 C-13.85437479 218.95470747 -3.3748665 263.71616613 20.2644043 297.97363281 C30.48216832 312.26457704 41.67488862 325.56063117 55.7644043 336.16113281 C56.80983398 336.96035156 57.85526367 337.75957031 58.93237305 338.58300781 C77.52947127 352.51452777 98.46150114 362.20004907 120.96704102 367.90820312 C127.43977663 369.66356696 133.3796833 372.5623049 137.18334961 378.30249023 C140.4994432 384.57895373 141.08848828 391.61693928 139.10424805 398.42675781 C136.4069832 404.54522872 131.90364671 408.62639208 125.9519043 411.53613281 C117.90442579 413.11406978 110.64954658 412.02175114 102.8894043 409.66113281 C101.98303223 409.39123535 101.07666016 409.12133789 100.14282227 408.84326172 C65.41360012 398.21432517 36.06483854 379.94214719 9.7644043 355.16113281 C8.59071289 354.06865234 8.59071289 354.06865234 7.39331055 352.95410156 C0.77899676 346.59917263 -4.71600026 339.45783066 -10.2355957 332.16113281 C-10.94844727 331.23171875 -11.66129883 330.30230469 -12.39575195 329.34472656 C-46.25280944 284.1795465 -58.65149554 226.8716383 -51.2121582 171.43066406 C-44.15650026 123.72828102 -20.73708794 81.44013123 13.7644043 48.16113281 C7.99073928 41.12079639 1.48525786 34.83576879 -5.01489258 28.4777832 C-6.49391253 27.02898132 -7.96663246 25.57400377 -9.4387207 24.11816406 C-10.31173828 23.26198486 -11.18475586 22.40580566 -12.08422852 21.52368164 C-15.93596885 17.29384833 -16.73174391 13.95994733 -16.63012695 8.35253906 C-15.99567027 4.82847768 -13.99532701 3.26378524 -11.2355957 1.16113281 C-7.78414893 -0.56459057 -3.79938062 0.00466375 0 0 Z " fill="#000000" transform="translate(95.235595703125,52.8388671875)"/>
<path d="M0 0 C4.82167009 4.80853203 6.58412932 9.45959688 6.74609375 16.1171875 C6.80216797 17.60798828 6.80216797 17.60798828 6.859375 19.12890625 C5.53274011 29.41336939 -2.42744516 35.85360067 -9.39990234 42.76489258 C-10.62310547 43.99188283 -11.84544945 45.21973008 -13.06700134 46.44836426 C-16.37397885 49.76925996 -19.69333867 53.0775127 -23.01552916 56.38318086 C-26.49570711 59.84947259 -29.96568483 63.32595 -33.43716431 66.8009491 C-39.26590162 72.63238516 -45.10265942 78.4556976 -50.94433594 84.27416992 C-57.69406406 90.99727181 -64.43125463 97.73273905 -71.16180933 104.47503167 C-77.64428138 110.96828803 -84.13521327 117.45302237 -90.63014603 123.9338131 C-93.39109071 126.68900557 -96.14910197 129.44708588 -98.9047966 132.20752907 C-102.14993835 135.45744822 -105.40244531 138.6998139 -108.66075325 141.93653107 C-109.85412949 143.12435043 -111.04497956 144.3147141 -112.23307991 145.50781059 C-113.85731404 147.13801607 -115.49052763 148.75867003 -117.12631226 150.37727356 C-118.03737921 151.28591062 -118.94844616 152.19454767 -119.8871212 153.13071918 C-125.57809108 158.01387241 -131.20756592 159.56368763 -138.56640625 159.4296875 C-151.55668142 157.74781201 -161.589491 143.56895943 -170.43359375 134.73046875 C-171.64276261 133.52452207 -172.85200267 132.31864676 -174.06130981 131.11283875 C-176.57584073 128.60424798 -179.08834536 126.09364803 -181.59960938 123.58178711 C-184.80880691 120.37248735 -188.02486929 117.17016156 -191.24267387 113.96949482 C-193.73400645 111.48929616 -196.22076522 109.00455016 -198.70627213 106.51851463 C-199.8903363 105.33562521 -201.07601011 104.15434462 -202.26336288 102.97475624 C-203.92110971 101.32685305 -205.57234675 99.67267868 -207.22216797 98.0168457 C-207.70636703 97.53826614 -208.1905661 97.05968658 -208.68943787 96.56660461 C-214.56140103 90.64036976 -217.68649385 85.60527492 -217.94140625 77.2421875 C-217.8768943 69.9926568 -216.07322836 66.00995091 -211.07421875 60.90625 C-206.57422559 56.87257737 -202.24987304 55.14145981 -196.25390625 55.0546875 C-194.92939453 55.01214844 -194.92939453 55.01214844 -193.578125 54.96875 C-184.02928287 56.43018109 -178.17033603 63.29433233 -171.72265625 69.8828125 C-170.70363998 70.90930245 -169.68372706 71.93490297 -168.66296387 72.95965576 C-165.99739973 75.64038749 -163.34407615 78.33291515 -160.6932373 81.02819824 C-157.97865184 83.78392922 -155.25250245 86.52816913 -152.52734375 89.2734375 C-147.19573552 94.64775967 -141.87702353 100.03461359 -136.56640625 105.4296875 C-130.55863703 100.45748453 -125.08227716 95.06158098 -119.59545898 89.5246582 C-118.60934236 88.53333871 -117.6229767 87.54226688 -116.63638306 86.55142212 C-114.52453674 84.42969198 -112.41417354 82.30650173 -110.30489922 80.18221474 C-106.96685333 76.82097185 -103.62381451 73.46472477 -100.27980042 70.10942078 C-90.77568244 60.57197546 -81.27582972 51.03030986 -71.78637695 41.47827148 C-66.53601581 36.19336678 -61.28029577 30.91385346 -56.01857334 25.64025944 C-52.69496704 22.3085703 -49.37802898 18.97042671 -46.06587398 15.62735522 C-44.0032376 13.54868441 -41.934307 11.47636877 -39.86354446 9.40579605 C-38.45219659 7.99088257 -37.04834967 6.56849935 -35.64476013 5.14588928 C-34.37281799 3.87796539 -34.37281799 3.87796539 -33.07518005 2.58442688 C-32.34499381 1.85017644 -31.61480757 1.115926 -30.86249447 0.35942554 C-21.89210705 -7.17970023 -9.17576852 -7.43743347 0 0 Z " fill="#000000" transform="translate(361.56640625,186.5703125)"/>
</svg>
