<?xml version="1.0" encoding="UTF-8"?>
<svg version="1.1" xmlns="http://www.w3.org/2000/svg" width="512" height="512">
<path d="M0 0 C6.3338126 5.22642983 12.10262848 10.96783967 17.89233398 16.77880859 C18.97688155 17.86363866 20.06165022 18.94824772 21.1466217 20.03265381 C24.07397637 22.95972299 26.99824972 25.88985276 29.92195773 28.82056379 C32.9844251 31.88930622 36.04974749 34.95519417 39.11476135 38.02139282 C44.91059045 43.82032303 50.70386692 49.62179638 56.49621874 55.4241997 C63.09402938 62.03320945 69.6946988 68.6393609 76.29560363 75.24528003 C89.86690733 88.82702048 103.43463714 102.412326 117 116 C116.05954818 117.11098018 115.11709795 118.22026886 114.17382812 119.32885742 C113.64921997 119.94677658 113.12461182 120.56469574 112.58410645 121.20133972 C110.36318494 123.72306628 107.93901834 126.00314212 105.5 128.3125 C100.64951088 133.05633087 96.95832952 137.88209406 94 144 C93.66226563 144.680625 93.32453125 145.36125 92.9765625 146.0625 C89.47411038 154.54550331 89.63842811 165.88588106 92.375 174.5625 C95.54383332 181.9674473 100.33253809 188.48356282 105 195 C105.52948242 195.7434668 106.05896484 196.48693359 106.60449219 197.25292969 C116.98441133 211.76295123 128.01454229 225.73084653 140.0703125 238.890625 C141.85170396 240.83789502 143.5875977 242.81524471 145.3125 244.8125 C153.00564117 253.61218887 161.00179119 262.09498948 169.25 270.375 C169.8989624 271.02855469 170.5479248 271.68210937 171.21655273 272.35546875 C175.07114918 276.19783769 179.04122421 279.84921867 183.16064453 283.40576172 C185.59113274 285.51235689 187.95007203 287.69260154 190.3125 289.875 C195.7149752 294.79577302 201.30237581 299.4270049 207 304 C208.13198786 304.92389449 209.26347487 305.8484029 210.39453125 306.7734375 C240.59029821 332.70345943 240.59029821 332.70345943 278 340 C289.75530422 337.42807312 298.3995323 330.08633297 306.5625 321.625 C307.28501953 320.88894531 308.00753906 320.15289062 308.75195312 319.39453125 C310.50848221 317.60310424 312.25610885 315.80370416 314 314 C320.3338126 319.22642983 326.10262848 324.96783967 331.89233398 330.77880859 C332.97688155 331.86363866 334.06165022 332.94824772 335.1466217 334.03265381 C338.07397637 336.95972299 340.99824972 339.88985276 343.92195773 342.82056379 C346.9844251 345.88930622 350.04974749 348.95519417 353.11476135 352.02139282 C358.91059045 357.82032303 364.70386692 363.62179638 370.49621874 369.4241997 C377.09402938 376.03320945 383.6946988 382.6393609 390.29560363 389.24528003 C403.86690733 402.82702048 417.43463714 416.412326 431 430 C430.05408479 431.11452231 429.10659237 432.22770612 428.15844727 433.34033203 C427.63098404 433.96038116 427.10352081 434.5804303 426.56007385 435.2192688 C405.96534559 458.72692206 374.50650767 472.25827312 344 476 C338.44049796 476.24275695 332.87678 476.2457258 327.3125 476.25 C326.52721924 476.25067474 325.74193848 476.25134949 324.93286133 476.25204468 C312.72837923 476.23538295 300.94523492 475.70941929 289 473 C288.23445801 472.82839355 287.46891602 472.65678711 286.68017578 472.47998047 C281.06026681 471.1809352 275.52769833 469.64430824 270 468 C269.20609863 467.76861328 268.41219727 467.53722656 267.59423828 467.29882812 C227.1437128 455.32190223 189.57463782 433.12884383 156 408 C154.90676485 407.19201126 153.81305303 406.38466686 152.71875 405.578125 C136.7566306 393.73255218 121.47496606 381.20079699 106.9140625 367.66796875 C105.42128246 366.30125458 103.92533611 364.9366478 102.38208008 363.62719727 C95.7024202 357.95275063 89.57369268 351.72430215 83.39086914 345.52124023 C81.4420313 343.56704376 79.48790728 341.61824853 77.53320312 339.66992188 C71.47546743 333.6154238 65.52656766 327.55011939 60 321 C58.54554483 319.39231627 57.08779105 317.78760285 55.625 316.1875 C46.9288545 306.53654123 38.94827311 296.26921193 31 286 C30.52691406 285.3905957 30.05382812 284.78119141 29.56640625 284.15332031 C-6.43213029 237.59423749 -44.82978029 175.80588359 -45.203125 114.94140625 C-45.20882507 114.19398666 -45.21452515 113.44656708 -45.22039795 112.67649841 C-45.2297838 111.10083399 -45.23635616 109.5251505 -45.24023438 107.94946289 C-45.24984904 105.59939918 -45.28089534 103.25024659 -45.3125 100.90039062 C-45.57906507 62.87218775 -29.51146451 31.33371197 -4 4 C-2.67354529 2.65982335 -1.34237257 1.3242324 0 0 Z " fill="#000000" transform="translate(55,26)"/>
<path d="M0 0 C1.39769135 -0.01169993 1.39769135 -0.01169993 2.82361889 -0.02363622 C5.94767414 -0.04358891 9.07051567 -0.02777845 12.19458008 -0.01205444 C14.43348909 -0.01882908 16.67239254 -0.02773134 18.9112854 -0.03860474 C24.99391433 -0.06142262 31.07611981 -0.05255115 37.15875626 -0.03670931 C43.51991174 -0.02406337 49.88103061 -0.0357868 56.2421875 -0.04364014 C67.60986448 -0.05332363 78.97732616 -0.03777106 90.34496009 -0.01234345 C100.65072325 0.00999528 110.95620481 0.0061151 121.26196289 -0.01693726 C133.23135443 -0.04369839 145.2005749 -0.05365313 157.17000675 -0.03887594 C163.50544561 -0.03107484 169.8406905 -0.03005816 176.17611694 -0.04655838 C182.13194492 -0.06098604 188.08724035 -0.05101187 194.04301071 -0.0220871 C196.23075856 -0.01546727 198.41855112 -0.01738916 200.60628128 -0.02840042 C203.58920316 -0.04203151 206.57041053 -0.02496881 209.55322266 0 C210.42238406 -0.01115361 211.29154547 -0.02230722 212.1870451 -0.03379881 C216.37822196 0.03441815 218.2904203 0.29553294 221.81339073 2.75473976 C224.19482489 6.24846602 224.40482933 8.14609292 224.41152954 12.35269165 C224.41932949 13.01497143 224.42712945 13.67725121 224.43516576 14.35960007 C224.45505926 16.57173573 224.43933421 18.7821458 224.42358398 20.99429321 C224.43036138 22.58296714 224.43926521 24.17163322 224.45013428 25.76028442 C224.47292003 30.07030006 224.46409451 34.37971699 224.44823885 38.68974304 C224.43557601 43.20110686 224.44732103 47.71241956 224.45516968 52.2237854 C224.46426514 59.79972534 224.45228111 67.37542153 224.4284668 74.95132446 C224.40125563 83.70895801 224.41006987 92.46600955 224.43759882 101.223629 C224.4602919 108.74396622 224.46348903 116.26412828 224.45040548 123.78448868 C224.44261203 128.27554107 224.44156637 132.76631994 224.45808792 137.25735474 C224.47253642 141.47978445 224.46250466 145.70146415 224.43361664 149.92381287 C224.42700776 151.47298436 224.42890023 153.02221903 224.43992996 154.57136536 C224.45360684 156.68747576 224.43645008 158.8011871 224.41152954 160.91714478 C224.40964441 162.10068542 224.40775928 163.28422607 224.40581703 164.50363159 C223.55160447 168.75468075 222.32587784 170.15591004 218.77661133 172.63491821 C215.70638704 173.33718626 212.73015427 173.30604413 209.59118652 173.2631073 C208.66347584 173.27020169 207.73576516 173.27729607 206.77994204 173.28460544 C203.66968708 173.30221499 200.56067687 173.28406515 197.45043945 173.26602173 C195.22138397 173.27115939 192.99233255 173.27843951 190.76329041 173.28770447 C184.70750627 173.30624586 178.65216144 173.29326226 172.59639549 173.27361417 C166.2632736 173.25724916 159.93018001 173.26603757 153.5970459 173.27113342 C142.96101862 173.27565677 132.32518516 173.25987377 121.68920898 173.23184204 C110.74740294 173.20300469 99.8058473 173.1959211 88.86401367 173.21133423 C75.67650323 173.22988529 62.48914143 173.22815819 49.30162048 173.2091198 C44.2650188 173.20224161 39.22851019 173.20328968 34.19190979 173.21066475 C28.26240235 173.21831763 22.33325628 173.2062336 16.4038105 173.17881584 C14.2257399 173.17192052 12.04763563 173.17184625 9.86956596 173.17903137 C6.89998407 173.1876998 3.93152407 173.17181369 0.96203613 173.14958191 C-0.33586955 173.16194306 -0.33586955 173.16194306 -1.65999556 173.17455393 C-5.71407443 173.1184004 -7.72997596 172.94738455 -11.23497772 170.72775173 C-14.54576122 167.24310049 -14.35494566 165.04301594 -14.37728882 160.31587219 C-14.38167107 159.66023924 -14.38605333 159.00460629 -14.39056838 158.32910568 C-14.40397217 156.12203968 -14.41013873 153.91501363 -14.41625977 151.70791626 C-14.42415945 150.12954527 -14.43242831 148.5511761 -14.44104004 146.97280884 C-14.46727415 141.78076913 -14.48256836 136.58872129 -14.49682617 131.39663696 C-14.50218515 129.610609 -14.50756266 127.82458109 -14.51295853 126.03855324 C-14.53458867 118.61048806 -14.55332631 111.18242507 -14.56458092 103.75433636 C-14.58082621 93.10175498 -14.61401636 82.44953802 -14.67098176 71.79709405 C-14.70965356 64.31083786 -14.72921028 56.82467926 -14.73450148 49.3383258 C-14.73815856 44.86504555 -14.75021733 40.39215385 -14.78260422 35.91898155 C-14.81263676 31.71064167 -14.81901418 27.50292639 -14.80722046 23.29450226 C-14.80699932 21.75013465 -14.81533772 20.20573847 -14.8328743 18.66147041 C-14.85552637 16.55186484 -14.84729347 14.44453194 -14.83139038 12.33491516 C-14.83470053 11.1548524 -14.83801067 9.97478964 -14.84142113 8.7589674 C-13.17920533 0.35674862 -7.25796377 -0.09313861 0 0 Z M28.77661133 67.63491821 C22.16739346 76.96379126 19.72030204 85.20037013 20.77661133 96.63491821 C22.90587004 105.95042506 27.30281864 113.43570149 35.15161133 118.94741821 C36.67473552 119.87442747 38.21592553 120.77264603 39.77661133 121.63491821 C40.69893555 122.14732056 40.69893555 122.14732056 41.63989258 122.67007446 C49.3827917 126.23479247 59.26732779 125.91785612 67.15161133 123.00991821 C76.37531581 118.68536168 83.59806013 112.2770403 87.58911133 102.75991821 C91.0178488 92.20679809 89.72317433 82.52804421 84.77661133 72.63491821 C97.97661133 72.63491821 111.17661133 72.63491821 124.77661133 72.63491821 C123.45661133 75.93491821 122.13661133 79.23491821 120.77661133 82.63491821 C118.89693927 92.3018031 120.42586414 101.28909869 125.77661133 109.63491821 C130.7499959 116.80963693 137.38337451 121.52112998 145.70239258 124.27163696 C156.7712664 126.21025328 166.10697103 124.27200199 175.64379883 118.50601196 C181.9488582 113.81805331 187.21232782 105.34093781 188.77661133 97.63491821 C189.95296211 86.95626725 188.27780734 78.20098326 182.16723633 69.28726196 C175.53896989 61.15395337 167.42464663 57.0784652 157.06243324 55.840765 C152.99859106 55.47480086 148.94097399 55.48757592 144.86328125 55.48965454 C143.42499718 55.48461662 143.42499718 55.48461662 141.95765686 55.47947693 C138.80745119 55.4700266 135.65729901 55.46802682 132.50708008 55.46694946 C130.30284097 55.46373284 128.09860207 55.46036847 125.8943634 55.4568634 C121.28048203 55.45088698 116.66661935 55.44902198 112.05273438 55.44961548 C106.16200716 55.44971703 100.27140066 55.4360652 94.38070202 55.41884327 C89.82944699 55.40768501 85.27822081 55.40569744 80.72695351 55.4062252 C78.55620215 55.40505084 76.38544992 55.40065984 74.21471214 55.39289284 C71.16909881 55.3830152 68.12374313 55.38600145 65.078125 55.39199829 C64.19516754 55.38637878 63.31221008 55.38075928 62.40249634 55.37496948 C49.62467107 55.43839907 37.67007461 57.84586027 28.77661133 67.63491821 Z " fill="#000000" transform="translate(278.223388671875,39.365081787109375)"/>
<path d="M0 0 C6.07143856 4.62339273 11.3519326 10.17332889 16.75032043 15.54971313 C18.08818663 16.87537156 19.42619172 18.20088984 20.764328 19.52627563 C23.55843736 22.29800353 26.34610727 25.0760349 29.13020325 27.8578186 C32.67140095 31.39374168 36.23504638 34.90606303 39.80491066 38.41300964 C42.57443741 41.14136051 45.32771664 43.88568748 48.07696152 46.63446045 C49.38278389 47.93495249 50.69425608 49.22980045 52.0117836 50.51843262 C62.6377175 60.93054558 71.76097631 71.82578832 72.01399231 87.40957642 C72.04467055 94.91807631 71.87734818 101.12913508 68.77375793 108.11221313 C64.77375793 108.11221313 64.77375793 108.11221313 62.56365585 106.39430237 C61.35241987 105.17753563 61.35241987 105.17753563 60.11671448 103.93618774 C59.18565887 103.0106308 58.25460327 102.08507385 57.29533386 101.13146973 C56.27070325 100.09268224 55.24626512 99.05370487 54.22200012 98.01455688 C53.13853918 96.92996791 52.05419719 95.84625845 50.96903992 94.7633667 C48.02232976 91.81780638 45.08813322 88.86005673 42.15598202 85.90001297 C39.09083114 82.80989337 36.01438405 79.73106292 32.93910217 76.65103149 C27.11588617 70.81537241 21.30294332 64.96958981 15.49359632 59.12012768 C8.87999097 52.46184615 2.25505307 45.81489012 -4.37087488 39.16887474 C-18.00200488 25.49591023 -31.61879343 11.80874366 -45.22624207 -1.88778687 C-44.89624207 -2.87778687 -44.56624207 -3.86778687 -44.22624207 -4.88778687 C-29.90009439 -11.920623 -12.7337759 -8.56060345 0 0 Z " fill="#000000" transform="translate(430.2262420654297,331.8877868652344)"/>
<path d="M0 0 C6.07143856 4.62339273 11.3519326 10.17332889 16.75032043 15.54971313 C18.08818663 16.87537156 19.42619172 18.20088984 20.764328 19.52627563 C23.55843736 22.29800353 26.34610727 25.0760349 29.13020325 27.8578186 C32.67140095 31.39374168 36.23504638 34.90606303 39.80491066 38.41300964 C42.57443741 41.14136051 45.32771664 43.88568748 48.07696152 46.63446045 C49.38278389 47.93495249 50.69425608 49.22980045 52.0117836 50.51843262 C62.6377175 60.93054558 71.76097631 71.82578832 72.01399231 87.40957642 C72.04467055 94.91807631 71.87734818 101.12913508 68.77375793 108.11221313 C64.77375793 108.11221313 64.77375793 108.11221313 62.56365585 106.39430237 C61.35241987 105.17753563 61.35241987 105.17753563 60.11671448 103.93618774 C59.18565887 103.0106308 58.25460327 102.08507385 57.29533386 101.13146973 C56.27070325 100.09268224 55.24626512 99.05370487 54.22200012 98.01455688 C53.13853918 96.92996791 52.05419719 95.84625845 50.96903992 94.7633667 C48.02232976 91.81780638 45.08813322 88.86005673 42.15598202 85.90001297 C39.09083114 82.80989337 36.01438405 79.73106292 32.93910217 76.65103149 C27.11588617 70.81537241 21.30294332 64.96958981 15.49359632 59.12012768 C8.87999097 52.46184615 2.25505307 45.81489012 -4.37087488 39.16887474 C-18.00200488 25.49591023 -31.61879343 11.80874366 -45.22624207 -1.88778687 C-44.89624207 -2.87778687 -44.56624207 -3.86778687 -44.22624207 -4.88778687 C-29.90009439 -11.920623 -12.7337759 -8.56060345 0 0 Z " fill="#000000" transform="translate(116.22624206542969,17.887786865234375)"/>
<path d="M0 0 C4.97195887 4.72336093 8.32808965 8.46072896 9.5 15.375 C9.58493108 21.44757207 8.48953841 25.63068406 4.5 30.375 C-0.94382496 35.6335639 -5.22139056 36.74649748 -12.64453125 36.6484375 C-17.7501313 36.15952915 -21.59323208 34.46721418 -25.06640625 30.65625 C-29.40479334 24.82229357 -30.25705573 19.56169803 -29.5 12.375 C-27.7050413 6.44650783 -24.49901542 2.884947 -19.5 -0.625 C-13.28539389 -2.69653537 -5.9411618 -2.75839655 0 0 Z " fill="#000000" transform="translate(343.5,112.625)"/>
<path d="M0 0 C5.11014743 2.74392699 8.50635283 7.00593809 10.734375 12.27734375 C11.67859063 19.3479817 10.98318471 25.44212782 6.734375 31.27734375 C2.21677427 35.67910856 -2.35425565 37.56228115 -8.640625 37.65234375 C-15.60086533 37.50266116 -18.97161785 35.41841709 -24.078125 30.65234375 C-27.50577573 26.15780835 -28.402801 20.69427314 -28.1796875 15.13671875 C-27.14938162 9.32121446 -23.57809151 5.15310479 -19.265625 1.27734375 C-13.96020055 -2.20681559 -5.88308782 -1.87650215 0 0 Z " fill="#000000" transform="translate(441.265625,111.72265625)"/>
</svg>
