<?xml version="1.0" encoding="UTF-8"?>
<svg version="1.1" xmlns="http://www.w3.org/2000/svg" width="512" height="512">
<path d="M0 0 C1.96920662 -0.0149778 1.96920662 -0.0149778 3.97819519 -0.03025818 C6.72862177 -0.04801914 9.47876836 -0.05379899 12.22924805 -0.05200195 C15.73071446 -0.05169522 19.23038127 -0.09292936 22.73141956 -0.14431858 C26.11263722 -0.18587831 29.49353084 -0.18394625 32.875 -0.1875 C34.74089531 -0.21983482 34.74089531 -0.21983482 36.64448547 -0.25282288 C44.55761016 -0.19068457 49.68154073 1.10922668 55.60546875 6.50390625 C60.19004374 11.87121356 60.3317724 17.09527066 60.1171875 24.05078125 C59.34945795 29.23149056 57.42739793 32.92879442 53.60546875 36.50390625 C47.66773977 40.68728393 43.07253339 41.08020774 35.9140625 41.04296875 C34.89176041 41.05476166 33.86945831 41.06655457 32.81617737 41.07870483 C29.5582861 41.11385351 26.30103363 41.12311371 23.04296875 41.12890625 C-10.37838867 41.09904713 -10.37838867 41.09904713 -39.39453125 56.50390625 C-40.04035156 57.03628906 -40.68617187 57.56867188 -41.3515625 58.1171875 C-53.53304479 69.19876168 -58.46445405 84.55026072 -59.39453125 100.50390625 C-59.55899182 106.37504674 -59.55178185 112.24938982 -59.56319618 118.12241745 C-59.57045172 121.08417264 -59.58618256 124.0457706 -59.60453796 127.00747681 C-59.65659505 135.42097874 -59.704955 143.83438717 -59.72045898 152.24804688 C-59.73059954 157.41564288 -59.76006569 162.58282969 -59.80177879 167.75026321 C-59.81399557 169.704412 -59.81922733 171.65861874 -59.81698036 173.61280441 C-59.80341561 189.25334981 -61.08928329 205.23396736 -72.203125 217.5 C-72.59628906 218.16128906 -72.98945312 218.82257813 -73.39453125 219.50390625 C-72.46134717 223.12719506 -70.51974224 226.05636052 -68.51953125 229.19140625 C-62.7436557 238.65310947 -60.25665247 247.12892394 -60.22094727 258.18701172 C-60.21426025 259.05122238 -60.20757324 259.91543304 -60.20068359 260.80583191 C-60.18665948 262.6795093 -60.17475708 264.55320351 -60.16473579 266.42690659 C-60.1482469 269.40552536 -60.12500062 272.38402195 -60.09983826 275.36257935 C-60.0293186 283.83084946 -59.96930881 292.29917197 -59.91772461 300.76757812 C-59.88565696 305.95409474 -59.84430558 311.14047383 -59.79752922 316.32687759 C-59.78166316 318.29054375 -59.769272 320.25424153 -59.76062202 322.21795273 C-59.65591986 345.66799275 -57.80876283 365.20347648 -41.08203125 383.25390625 C-26.67090499 396.79064957 -9.23794332 399.65070533 9.765625 399.609375 C11.87956756 399.6228213 13.99350059 399.63784266 16.10742188 399.65429688 C19.39462982 399.67715031 22.68073999 399.69135806 25.96801758 399.67895508 C29.17216639 399.67010978 32.37419623 399.69908153 35.578125 399.734375 C36.55024429 399.72214401 37.52236359 399.70991302 38.52394104 399.6973114 C45.66234271 399.82299635 50.19703844 401.84236449 55.60546875 406.50390625 C60.19004374 411.87121356 60.3317724 417.09527066 60.1171875 424.05078125 C59.13301045 430.69209813 56.10037873 434.63916971 50.81787109 438.58740234 C45.33993007 441.63452327 39.3148816 441.07495893 33.2109375 441.03515625 C31.90957352 441.03898315 30.60820953 441.04281006 29.26741028 441.04675293 C26.5127966 441.05263433 23.75870323 441.0441454 21.00415039 441.02539062 C17.52885009 441.00284465 14.05479083 441.01595321 10.57953548 441.03914928 C-22.00953128 441.22404235 -48.29997053 434.56350284 -72.39453125 411.50390625 C-84.22943112 399.61898892 -93.04960617 384.74534571 -97.39453125 368.50390625 C-97.64046524 367.61981079 -97.88639923 366.73571533 -98.13978577 365.8248291 C-100.86027452 354.82849007 -100.83537239 344.1227578 -100.8359375 332.85546875 C-100.84773497 330.78713051 -100.86110491 328.71880071 -100.8759613 326.65048218 C-100.91189241 321.24502184 -100.93227608 315.83963638 -100.94750977 310.43408203 C-100.97248758 301.76357948 -101.01217392 293.09324208 -101.06941032 284.42289352 C-101.08564615 281.40954375 -101.08950704 278.39635304 -101.09242249 275.38296509 C-101.10220209 273.52825652 -101.1124659 271.67355042 -101.12329102 269.81884766 C-101.11946159 268.57652878 -101.11946159 268.57652878 -101.11555481 267.30911255 C-101.18319757 259.56511361 -102.24840262 252.62362679 -107.39453125 246.50390625 C-111.84835118 243.09246971 -115.21716097 242.28974845 -120.76953125 241.62890625 C-128.8231122 240.56312741 -133.71472109 237.64124498 -138.95703125 231.50390625 C-141.61605492 225.93850786 -141.27721048 219.46030655 -140.39453125 213.50390625 C-138.26567445 208.17800303 -134.8029799 203.79416736 -129.57421875 201.19140625 C-126.72667058 200.29325486 -123.91691928 199.94920932 -120.95703125 199.56640625 C-114.37931742 198.68937774 -109.30900456 197.15125881 -105.05859375 191.83203125 C-101.08962352 185.4704194 -101.24807929 178.70289755 -101.25268555 171.47949219 C-101.24921112 170.59069366 -101.24573669 169.70189514 -101.24215698 168.78616333 C-101.23482456 166.86120982 -101.22946583 164.93624799 -101.22586632 163.01128387 C-101.21865457 159.94774189 -101.202949 156.88435584 -101.18452454 153.82086182 C-101.13230557 145.11171735 -101.08420168 136.40265671 -101.06860352 127.69335938 C-101.05842175 122.35644837 -101.02883747 117.01992911 -100.98728371 111.68317413 C-100.97510655 109.66617063 -100.96982767 107.64911145 -100.97208214 105.63207245 C-100.99741793 75.541195 -92.49793013 50.55447092 -71.39453125 28.50390625 C-52.22878128 9.41881498 -26.86171509 0.07268308 0 0 Z " fill="#000000" transform="translate(140.39453125,35.49609375)"/>
<path d="M0 0 C1.81886971 -0.00574036 1.81886971 -0.00574036 3.67448425 -0.01159668 C6.24059885 -0.01431409 8.80674124 -0.00696501 11.37280273 0.00976562 C15.24202778 0.03097082 19.10935202 0.01006239 22.97851562 -0.015625 C54.18527376 -0.0524861 79.54222289 7.57829962 102.48046875 29.53125 C123.21360225 50.35200728 130.74049581 76.14230438 130.81599426 104.85817528 C130.82436461 107.94042835 130.8449407 111.02239651 130.86853027 114.10456848 C130.92460856 121.75241022 130.96012382 129.40032112 130.99615479 137.04827881 C131.02747339 143.53075328 131.06670605 150.01308679 131.1164093 156.49544716 C131.13637471 159.5220649 131.14477375 162.54857148 131.15270996 165.57524109 C131.16568788 167.43973185 131.17920899 169.30421894 131.19335938 171.16870117 C131.19237747 172.00162689 131.19139557 172.83455261 131.19038391 173.69271851 C131.27200225 181.44725585 132.3262653 188.40192698 137.48046875 194.53125 C141.93428868 197.94268654 145.30309847 198.7454078 150.85546875 199.40625 C158.9090497 200.47202884 163.80065859 203.39391127 169.04296875 209.53125 C171.70199242 215.09664839 171.36314798 221.5748497 170.48046875 227.53125 C168.35161195 232.85715322 164.8889174 237.24098889 159.66015625 239.84375 C156.81260808 240.74190139 154.00285678 241.08594693 151.04296875 241.46875 C144.46525492 242.34577851 139.39494206 243.88389744 135.14453125 249.203125 C131.17556102 255.56473685 131.33401679 262.3322587 131.33862305 269.55566406 C131.33514862 270.44446259 131.33167419 271.33326111 131.32809448 272.24899292 C131.32076206 274.17394643 131.31540333 276.09890826 131.31180382 278.02387238 C131.30459207 281.08741436 131.2888865 284.15080041 131.27046204 287.21429443 C131.21824307 295.9234389 131.17013918 304.63249954 131.15454102 313.34179688 C131.14435925 318.67870788 131.11477497 324.01522714 131.07322121 329.35198212 C131.06104405 331.36898562 131.05576517 333.3860448 131.05801964 335.4030838 C131.08335543 365.49396125 122.58386763 390.48068533 101.48046875 412.53125 C82.51387899 431.41801921 57.79144872 440.74335035 31.25390625 440.9375 C30.02564117 440.94890015 28.7973761 440.96030029 27.53189087 440.9720459 C24.95195909 440.99082469 22.37198066 441.00396522 19.79199219 441.01171875 C15.85918136 441.03123158 11.92841998 441.09342701 7.99609375 441.15625 C5.47787687 441.16930367 2.95964521 441.17980712 0.44140625 441.1875 C-0.72444 441.2121936 -1.89028625 441.23688721 -3.09146118 441.2623291 C-10.81007318 441.22040268 -15.72340158 439.73262962 -21.51953125 434.53125 C-26.10410624 429.16394269 -26.2458349 423.93988559 -26.03125 416.984375 C-25.26352045 411.80366569 -23.34146043 408.10636183 -19.51953125 404.53125 C-13.79346077 400.57026141 -9.57949201 399.95286908 -2.703125 399.9921875 C-1.30284813 399.97449814 -1.30284813 399.97449814 0.12571716 399.95645142 C3.0983044 399.92133669 6.07019172 399.91204724 9.04296875 399.90625 C33.62636476 399.76869788 54.21398469 398.84069189 73.23046875 381.21875 C88.89050663 364.65741498 89.77069872 343.98199002 89.75486374 322.48981857 C89.75388202 319.54448103 89.7670293 316.59949232 89.78384399 313.65420532 C89.82964057 305.29195737 89.85471909 296.92975234 89.86132812 288.56738281 C89.86637175 283.42113429 89.89075084 278.27526012 89.92665482 273.12913895 C89.93637253 271.18614586 89.93882926 269.24310082 89.93348312 267.30009079 C89.89252097 251.69444441 91.20166133 235.77200722 102.2890625 223.53515625 C102.87880859 222.54322266 102.87880859 222.54322266 103.48046875 221.53125 C102.54728467 217.90796119 100.60567974 214.97879573 98.60546875 211.84375 C92.8295932 202.38204678 90.34258997 193.90623231 90.30688477 182.84814453 C90.30019775 181.98393387 90.29351074 181.11972321 90.28662109 180.22932434 C90.27259698 178.35564695 90.26069458 176.48195274 90.25067329 174.60824966 C90.2341844 171.62963089 90.21093812 168.6511343 90.18577576 165.6725769 C90.1152561 157.20430679 90.05524631 148.73598428 90.00366211 140.26757812 C89.97159446 135.08106151 89.93024308 129.89468242 89.88346672 124.70827866 C89.86760066 122.7446125 89.8552095 120.78091472 89.84655952 118.81720352 C89.75132766 97.48821569 88.76438302 78.68852421 74.48046875 61.53125 C73.94808594 60.88542969 73.41570312 60.23960938 72.8671875 59.57421875 C62.05036152 47.6837624 47.05857634 42.69469221 31.48046875 41.53125 C28.05112938 41.4168386 24.62627744 41.41757962 21.1953125 41.42578125 C19.26366063 41.41233535 17.3320192 41.39731407 15.40039062 41.38085938 C12.40286297 41.35801124 9.40653951 41.34379729 6.40893555 41.35620117 C3.48270997 41.36505619 0.5587977 41.33605674 -2.3671875 41.30078125 C-3.69412376 41.31912773 -3.69412376 41.31912773 -5.04786682 41.33784485 C-11.90790052 41.20565398 -16.30800425 38.94887464 -21.51953125 34.53125 C-26.10410624 29.16394269 -26.2458349 23.93988559 -26.03125 16.984375 C-25.26352045 11.80366569 -23.34146043 8.10636183 -19.51953125 4.53125 C-13.19642069 -0.1038149 -7.68163643 -0.05388764 0 0 Z " fill="#000000" transform="translate(341.51953125,35.46875)"/>
<path d="M0 0 C1.82327316 -0.01533279 1.82327316 -0.01533279 3.68338013 -0.03097534 C7.0019769 -0.05394449 10.31957163 -0.05892597 13.63817739 -0.05384874 C16.41631415 -0.05170121 19.19435992 -0.06149676 21.97247708 -0.07105958 C28.5312005 -0.0932107 35.08969481 -0.09414734 41.6484375 -0.08203125 C48.39644439 -0.06995645 55.14361674 -0.0945686 61.89148128 -0.13717139 C67.70153521 -0.17249348 73.51132458 -0.18439204 79.32148182 -0.1778959 C82.78436508 -0.17428364 86.2466531 -0.1794048 89.70943832 -0.20732498 C93.57484971 -0.23732825 97.43921236 -0.21846479 101.3046875 -0.1953125 C103.00694489 -0.21824371 103.00694489 -0.21824371 104.74359131 -0.24163818 C112.29072875 -0.14198452 117.09732073 1.50684893 122.78173828 6.54931641 C127.36631327 11.91662371 127.50804193 17.14068081 127.29345703 24.09619141 C126.52572748 29.27690072 124.60366746 32.97420457 120.78173828 36.54931641 C114.51382132 41.1112111 109.16747628 41.13171473 101.56347656 41.09863281 C99.7402034 41.11396561 99.7402034 41.11396561 97.88009644 41.12960815 C94.56149966 41.1525773 91.24390493 41.15755878 87.92529917 41.15248156 C85.14716242 41.15033402 82.36911664 41.16012957 79.59099948 41.1696924 C73.03227606 41.19184352 66.47378175 41.19278016 59.91503906 41.18066406 C53.16703217 41.16858926 46.41985982 41.19320141 39.67199528 41.2358042 C33.86194136 41.27112629 28.05215198 41.28302485 22.24199474 41.27652872 C18.77911148 41.27291645 15.31682347 41.27803761 11.85403824 41.30595779 C7.98862685 41.33596106 4.1242642 41.31709761 0.25878906 41.29394531 C-1.44346832 41.31687653 -1.44346832 41.31687653 -3.18011475 41.340271 C-10.72725218 41.24061733 -15.53384417 39.59178389 -21.21826172 34.54931641 C-25.80283671 29.1820091 -25.94456537 23.957952 -25.72998047 17.00244141 C-24.96225092 11.82173209 -23.0401909 8.12442824 -19.21826172 4.54931641 C-12.95034476 -0.01257829 -7.60399972 -0.03308192 0 0 Z " fill="#000000" transform="translate(145.21826171875,355.45068359375)"/>
<path d="M0 0 C1.82327316 -0.01533279 1.82327316 -0.01533279 3.68338013 -0.03097534 C7.0019769 -0.05394449 10.31957163 -0.05892597 13.63817739 -0.05384874 C16.41631415 -0.05170121 19.19435992 -0.06149676 21.97247708 -0.07105958 C28.5312005 -0.0932107 35.08969481 -0.09414734 41.6484375 -0.08203125 C48.39644439 -0.06995645 55.14361674 -0.0945686 61.89148128 -0.13717139 C67.70153521 -0.17249348 73.51132458 -0.18439204 79.32148182 -0.1778959 C82.78436508 -0.17428364 86.2466531 -0.1794048 89.70943832 -0.20732498 C93.57484971 -0.23732825 97.43921236 -0.21846479 101.3046875 -0.1953125 C103.00694489 -0.21824371 103.00694489 -0.21824371 104.74359131 -0.24163818 C112.29072875 -0.14198452 117.09732073 1.50684893 122.78173828 6.54931641 C127.36631327 11.91662371 127.50804193 17.14068081 127.29345703 24.09619141 C126.52572748 29.27690072 124.60366746 32.97420457 120.78173828 36.54931641 C114.51382132 41.1112111 109.16747628 41.13171473 101.56347656 41.09863281 C99.7402034 41.11396561 99.7402034 41.11396561 97.88009644 41.12960815 C94.56149966 41.1525773 91.24390493 41.15755878 87.92529917 41.15248156 C85.14716242 41.15033402 82.36911664 41.16012957 79.59099948 41.1696924 C73.03227606 41.19184352 66.47378175 41.19278016 59.91503906 41.18066406 C53.16703217 41.16858926 46.41985982 41.19320141 39.67199528 41.2358042 C33.86194136 41.27112629 28.05215198 41.28302485 22.24199474 41.27652872 C18.77911148 41.27291645 15.31682347 41.27803761 11.85403824 41.30595779 C7.98862685 41.33596106 4.1242642 41.31709761 0.25878906 41.29394531 C-1.44346832 41.31687653 -1.44346832 41.31687653 -3.18011475 41.340271 C-10.72725218 41.24061733 -15.53384417 39.59178389 -21.21826172 34.54931641 C-25.80283671 29.1820091 -25.94456537 23.957952 -25.72998047 17.00244141 C-24.96225092 11.82173209 -23.0401909 8.12442824 -19.21826172 4.54931641 C-12.95034476 -0.01257829 -7.60399972 -0.03308192 0 0 Z " fill="#000000" transform="translate(265.21826171875,275.45068359375)"/>
<path d="M0 0 C1.82327316 -0.01533279 1.82327316 -0.01533279 3.68338013 -0.03097534 C7.0019769 -0.05394449 10.31957163 -0.05892597 13.63817739 -0.05384874 C16.41631415 -0.05170121 19.19435992 -0.06149676 21.97247708 -0.07105958 C28.5312005 -0.0932107 35.08969481 -0.09414734 41.6484375 -0.08203125 C48.39644439 -0.06995645 55.14361674 -0.0945686 61.89148128 -0.13717139 C67.70153521 -0.17249348 73.51132458 -0.18439204 79.32148182 -0.1778959 C82.78436508 -0.17428364 86.2466531 -0.1794048 89.70943832 -0.20732498 C93.57484971 -0.23732825 97.43921236 -0.21846479 101.3046875 -0.1953125 C103.00694489 -0.21824371 103.00694489 -0.21824371 104.74359131 -0.24163818 C112.29072875 -0.14198452 117.09732073 1.50684893 122.78173828 6.54931641 C127.36631327 11.91662371 127.50804193 17.14068081 127.29345703 24.09619141 C126.52572748 29.27690072 124.60366746 32.97420457 120.78173828 36.54931641 C114.51382132 41.1112111 109.16747628 41.13171473 101.56347656 41.09863281 C99.7402034 41.11396561 99.7402034 41.11396561 97.88009644 41.12960815 C94.56149966 41.1525773 91.24390493 41.15755878 87.92529917 41.15248156 C85.14716242 41.15033402 82.36911664 41.16012957 79.59099948 41.1696924 C73.03227606 41.19184352 66.47378175 41.19278016 59.91503906 41.18066406 C53.16703217 41.16858926 46.41985982 41.19320141 39.67199528 41.2358042 C33.86194136 41.27112629 28.05215198 41.28302485 22.24199474 41.27652872 C18.77911148 41.27291645 15.31682347 41.27803761 11.85403824 41.30595779 C7.98862685 41.33596106 4.1242642 41.31709761 0.25878906 41.29394531 C-1.44346832 41.31687653 -1.44346832 41.31687653 -3.18011475 41.340271 C-10.72725218 41.24061733 -15.53384417 39.59178389 -21.21826172 34.54931641 C-25.80283671 29.1820091 -25.94456537 23.957952 -25.72998047 17.00244141 C-24.96225092 11.82173209 -23.0401909 8.12442824 -19.21826172 4.54931641 C-12.95034476 -0.01257829 -7.60399972 -0.03308192 0 0 Z " fill="#000000" transform="translate(145.21826171875,195.45068359375)"/>
<path d="M0 0 C1.82327316 -0.01533279 1.82327316 -0.01533279 3.68338013 -0.03097534 C7.0019769 -0.05394449 10.31957163 -0.05892597 13.63817739 -0.05384874 C16.41631415 -0.05170121 19.19435992 -0.06149676 21.97247708 -0.07105958 C28.5312005 -0.0932107 35.08969481 -0.09414734 41.6484375 -0.08203125 C48.39644439 -0.06995645 55.14361674 -0.0945686 61.89148128 -0.13717139 C67.70153521 -0.17249348 73.51132458 -0.18439204 79.32148182 -0.1778959 C82.78436508 -0.17428364 86.2466531 -0.1794048 89.70943832 -0.20732498 C93.57484971 -0.23732825 97.43921236 -0.21846479 101.3046875 -0.1953125 C103.00694489 -0.21824371 103.00694489 -0.21824371 104.74359131 -0.24163818 C112.29072875 -0.14198452 117.09732073 1.50684893 122.78173828 6.54931641 C127.36631327 11.91662371 127.50804193 17.14068081 127.29345703 24.09619141 C126.52572748 29.27690072 124.60366746 32.97420457 120.78173828 36.54931641 C114.51382132 41.1112111 109.16747628 41.13171473 101.56347656 41.09863281 C99.7402034 41.11396561 99.7402034 41.11396561 97.88009644 41.12960815 C94.56149966 41.1525773 91.24390493 41.15755878 87.92529917 41.15248156 C85.14716242 41.15033402 82.36911664 41.16012957 79.59099948 41.1696924 C73.03227606 41.19184352 66.47378175 41.19278016 59.91503906 41.18066406 C53.16703217 41.16858926 46.41985982 41.19320141 39.67199528 41.2358042 C33.86194136 41.27112629 28.05215198 41.28302485 22.24199474 41.27652872 C18.77911148 41.27291645 15.31682347 41.27803761 11.85403824 41.30595779 C7.98862685 41.33596106 4.1242642 41.31709761 0.25878906 41.29394531 C-1.44346832 41.31687653 -1.44346832 41.31687653 -3.18011475 41.340271 C-10.72725218 41.24061733 -15.53384417 39.59178389 -21.21826172 34.54931641 C-25.80283671 29.1820091 -25.94456537 23.957952 -25.72998047 17.00244141 C-24.96225092 11.82173209 -23.0401909 8.12442824 -19.21826172 4.54931641 C-12.95034476 -0.01257829 -7.60399972 -0.03308192 0 0 Z " fill="#000000" transform="translate(265.21826171875,115.45068359375)"/>
<path d="M0 0 C1.7510051 -0.01285538 1.7510051 -0.01285538 3.53738403 -0.02597046 C5.99999403 -0.03742637 8.46267168 -0.03848017 10.92529297 -0.02978516 C14.67664032 -0.02346894 18.42482399 -0.07039849 22.17578125 -0.12109375 C24.57551688 -0.12564079 26.97526094 -0.12704624 29.375 -0.125 C30.48777313 -0.14341949 31.60054626 -0.16183899 32.74703979 -0.18081665 C40.31150318 -0.09173485 45.12370579 1.54941644 50.8203125 6.6015625 C55.40488749 11.96886981 55.54661615 17.19292691 55.33203125 24.1484375 C54.5643017 29.32914681 52.64224168 33.02645067 48.8203125 36.6015625 C42.57463879 41.13631885 37.2176352 41.21549178 29.640625 41.203125 C28.47328827 41.21169525 27.30595154 41.2202655 26.10324097 41.22909546 C23.64063097 41.24055137 21.17795332 41.24160517 18.71533203 41.23291016 C14.96398468 41.22659394 11.21580101 41.27352349 7.46484375 41.32421875 C5.06510812 41.32876579 2.66536406 41.33017124 0.265625 41.328125 C-0.84714813 41.34654449 -1.95992126 41.36496399 -3.10641479 41.38394165 C-10.67087818 41.29485985 -15.48308079 39.65370856 -21.1796875 34.6015625 C-25.76426249 29.23425519 -25.90599115 24.01019809 -25.69140625 17.0546875 C-24.9236767 11.87397819 -23.00161668 8.17667433 -19.1796875 4.6015625 C-12.93401379 0.06680615 -7.5770102 -0.01236678 0 0 Z " fill="#000000" transform="translate(337.1796875,355.3984375)"/>
<path d="M0 0 C1.7510051 -0.01285538 1.7510051 -0.01285538 3.53738403 -0.02597046 C5.99999403 -0.03742637 8.46267168 -0.03848017 10.92529297 -0.02978516 C14.67664032 -0.02346894 18.42482399 -0.07039849 22.17578125 -0.12109375 C24.57551688 -0.12564079 26.97526094 -0.12704624 29.375 -0.125 C30.48777313 -0.14341949 31.60054626 -0.16183899 32.74703979 -0.18081665 C40.31150318 -0.09173485 45.12370579 1.54941644 50.8203125 6.6015625 C55.40488749 11.96886981 55.54661615 17.19292691 55.33203125 24.1484375 C54.5643017 29.32914681 52.64224168 33.02645067 48.8203125 36.6015625 C42.57463879 41.13631885 37.2176352 41.21549178 29.640625 41.203125 C28.47328827 41.21169525 27.30595154 41.2202655 26.10324097 41.22909546 C23.64063097 41.24055137 21.17795332 41.24160517 18.71533203 41.23291016 C14.96398468 41.22659394 11.21580101 41.27352349 7.46484375 41.32421875 C5.06510812 41.32876579 2.66536406 41.33017124 0.265625 41.328125 C-0.84714813 41.34654449 -1.95992126 41.36496399 -3.10641479 41.38394165 C-10.67087818 41.29485985 -15.48308079 39.65370856 -21.1796875 34.6015625 C-25.76426249 29.23425519 -25.90599115 24.01019809 -25.69140625 17.0546875 C-24.9236767 11.87397819 -23.00161668 8.17667433 -19.1796875 4.6015625 C-12.93401379 0.06680615 -7.5770102 -0.01236678 0 0 Z " fill="#000000" transform="translate(145.1796875,275.3984375)"/>
<path d="M0 0 C1.7510051 -0.01285538 1.7510051 -0.01285538 3.53738403 -0.02597046 C5.99999403 -0.03742637 8.46267168 -0.03848017 10.92529297 -0.02978516 C14.67664032 -0.02346894 18.42482399 -0.07039849 22.17578125 -0.12109375 C24.57551688 -0.12564079 26.97526094 -0.12704624 29.375 -0.125 C30.48777313 -0.14341949 31.60054626 -0.16183899 32.74703979 -0.18081665 C40.31150318 -0.09173485 45.12370579 1.54941644 50.8203125 6.6015625 C55.40488749 11.96886981 55.54661615 17.19292691 55.33203125 24.1484375 C54.5643017 29.32914681 52.64224168 33.02645067 48.8203125 36.6015625 C42.57463879 41.13631885 37.2176352 41.21549178 29.640625 41.203125 C28.47328827 41.21169525 27.30595154 41.2202655 26.10324097 41.22909546 C23.64063097 41.24055137 21.17795332 41.24160517 18.71533203 41.23291016 C14.96398468 41.22659394 11.21580101 41.27352349 7.46484375 41.32421875 C5.06510812 41.32876579 2.66536406 41.33017124 0.265625 41.328125 C-0.84714813 41.34654449 -1.95992126 41.36496399 -3.10641479 41.38394165 C-10.67087818 41.29485985 -15.48308079 39.65370856 -21.1796875 34.6015625 C-25.76426249 29.23425519 -25.90599115 24.01019809 -25.69140625 17.0546875 C-24.9236767 11.87397819 -23.00161668 8.17667433 -19.1796875 4.6015625 C-12.93401379 0.06680615 -7.5770102 -0.01236678 0 0 Z " fill="#000000" transform="translate(337.1796875,195.3984375)"/>
<path d="M0 0 C1.7510051 -0.01285538 1.7510051 -0.01285538 3.53738403 -0.02597046 C5.99999403 -0.03742637 8.46267168 -0.03848017 10.92529297 -0.02978516 C14.67664032 -0.02346894 18.42482399 -0.07039849 22.17578125 -0.12109375 C24.57551688 -0.12564079 26.97526094 -0.12704624 29.375 -0.125 C30.48777313 -0.14341949 31.60054626 -0.16183899 32.74703979 -0.18081665 C40.31150318 -0.09173485 45.12370579 1.54941644 50.8203125 6.6015625 C55.40488749 11.96886981 55.54661615 17.19292691 55.33203125 24.1484375 C54.5643017 29.32914681 52.64224168 33.02645067 48.8203125 36.6015625 C42.57463879 41.13631885 37.2176352 41.21549178 29.640625 41.203125 C28.47328827 41.21169525 27.30595154 41.2202655 26.10324097 41.22909546 C23.64063097 41.24055137 21.17795332 41.24160517 18.71533203 41.23291016 C14.96398468 41.22659394 11.21580101 41.27352349 7.46484375 41.32421875 C5.06510812 41.32876579 2.66536406 41.33017124 0.265625 41.328125 C-0.84714813 41.34654449 -1.95992126 41.36496399 -3.10641479 41.38394165 C-10.67087818 41.29485985 -15.48308079 39.65370856 -21.1796875 34.6015625 C-25.76426249 29.23425519 -25.90599115 24.01019809 -25.69140625 17.0546875 C-24.9236767 11.87397819 -23.00161668 8.17667433 -19.1796875 4.6015625 C-12.93401379 0.06680615 -7.5770102 -0.01236678 0 0 Z " fill="#000000" transform="translate(145.1796875,115.3984375)"/>
</svg>
