<?xml version="1.0" encoding="UTF-8"?>
<svg version="1.1" xmlns="http://www.w3.org/2000/svg" width="512" height="512">
<path d="M0 0 C13.2 0 26.4 0 40 0 C40 13.2 40 26.4 40 40 C127.12 40 214.24 40 304 40 C304 26.8 304 13.6 304 0 C317.2 0 330.4 0 344 0 C344 13.2 344 26.4 344 40 C354.93340173 39.8428787 354.93340173 39.8428787 365.8659668 39.63964844 C383.28835661 39.42418157 397.93614469 44.50454582 410.71875 56.66015625 C424.13436948 70.420355 428.31061423 85.30851331 428.26742554 104.07304382 C428.27116505 105.61336086 428.27576777 107.153676 428.28115618 108.69398814 C428.2933645 112.91502586 428.29312827 117.13598419 428.29076743 121.35703552 C428.29035871 125.91411738 428.3014037 130.47117398 428.31088257 135.02824402 C428.32748193 143.95237629 428.33299164 152.87648214 428.33410732 161.80062857 C428.33505836 169.05671877 428.33917141 176.31280026 428.34550858 183.56888771 C428.36311851 204.15200895 428.3723479 224.73510934 428.37084763 245.31823816 C428.37072776 246.98203473 428.37072776 246.98203473 428.37060547 248.67944336 C428.37052371 249.78999924 428.37044195 250.90055511 428.37035771 252.0447642 C428.369545 270.03831889 428.38867945 288.03178984 428.4168822 306.02532031 C428.44562794 324.51151518 428.45942155 342.99766923 428.45769465 361.48388702 C428.45703131 371.85821273 428.46249916 382.23245066 428.48405075 392.60675621 C428.50228482 401.44057296 428.50659163 410.27426214 428.4930319 419.10808959 C428.48651335 423.61201266 428.48634469 428.11569114 428.5037384 432.61959076 C428.5195237 436.74962821 428.51655026 440.87922825 428.49917014 445.00925539 C428.49611219 446.4964537 428.49968682 447.9836851 428.51089029 449.47084435 C428.63436204 467.03606435 423.54682508 481.88212404 411.33984375 494.71875 C400.47359087 505.31289304 386.97152336 512.23989451 371.586339 512.25726891 C370.88201629 512.26077498 370.17769359 512.26428105 369.45202777 512.26789337 C367.10407211 512.27715913 364.75636713 512.27229665 362.40840149 512.26742554 C360.70309266 512.27116424 358.99778554 512.27576664 357.29248112 512.28115618 C352.61538262 512.29337451 347.93835571 512.29312709 343.26124489 512.29076743 C338.21336208 512.29035897 333.16550214 512.30140127 328.11763 512.31088257 C318.23095941 512.32748736 308.34431267 512.33299189 298.4576293 512.33410732 C290.41969342 512.33505809 282.38176541 512.33916979 274.34383202 512.34550858 C251.54721007 512.36311989 228.75060695 512.37234767 205.95397816 512.37084763 C204.72530062 512.37076772 203.49662308 512.3706878 202.23071289 512.37060547 C201.00053242 512.37052371 199.77035196 512.37044195 198.50289329 512.37035771 C178.56938417 512.36954493 158.63595063 512.38868073 138.70246337 512.4168822 C118.22744725 512.44562087 97.75246798 512.45942194 77.27743119 512.45769465 C65.78528189 512.45703107 54.29321182 512.46250939 42.8010807 512.48405075 C33.01572489 512.50227549 23.23048422 512.50659924 13.44511876 512.4930319 C8.45514044 512.48650871 3.46538294 512.48636167 -1.52457428 512.5037384 C-6.09869889 512.51950283 -10.67242821 512.51657113 -15.24654339 512.49917014 C-16.89524783 512.49610765 -18.54398202 512.49970413 -20.19265135 512.51089029 C-38.2400114 512.62516431 -53.42460473 507.98190278 -66.71875 495.33984375 C-80.13436948 481.579645 -84.31061423 466.69148669 -84.26742554 447.92695618 C-84.27116505 446.38663914 -84.27576777 444.846324 -84.28115618 443.30601186 C-84.2933645 439.08497414 -84.29312827 434.86401581 -84.29076743 430.64296448 C-84.29035871 426.08588262 -84.3014037 421.52882602 -84.31088257 416.97175598 C-84.32748193 408.04762371 -84.33299164 399.12351786 -84.33410732 390.19937143 C-84.33505836 382.94328123 -84.33917141 375.68719974 -84.34550858 368.43111229 C-84.36311851 347.84799105 -84.3723479 327.26489066 -84.37084763 306.68176184 C-84.37076772 305.57256412 -84.3706878 304.46336641 -84.37060547 303.32055664 C-84.37052371 302.21000076 -84.37044195 301.09944489 -84.37035771 299.9552358 C-84.369545 281.96168111 -84.38867945 263.96821016 -84.4168822 245.97467969 C-84.44562794 227.48848482 -84.45942155 209.00233077 -84.45769465 190.51611298 C-84.45703131 180.14178727 -84.46249916 169.76754934 -84.48405075 159.39324379 C-84.50228482 150.55942704 -84.50659163 141.72573786 -84.4930319 132.89191041 C-84.48651335 128.38798734 -84.48634469 123.88430886 -84.5037384 119.38040924 C-84.5195237 115.25037179 -84.51655026 111.12077175 -84.49917014 106.99074461 C-84.49611219 105.5035463 -84.49968682 104.0163149 -84.51089029 102.52915565 C-84.63436204 84.96393565 -79.54682508 70.11787596 -67.33984375 57.28125 C-56.91822657 47.12060821 -43.57572266 39.76862469 -28.72851562 39.77368164 C-27.65633789 39.78902954 -27.65633789 39.78902954 -26.5625 39.8046875 C-25.88251953 39.80670166 -25.20253906 39.80871582 -24.50195312 39.81079102 C-22.00123185 39.82112688 -19.50060797 39.84904769 -17 39.875 C-11.39 39.91625 -5.78 39.9575 0 40 C0 26.8 0 13.6 0 0 Z M-39 87 C-50.76308534 102.25636523 -44 137.70737215 -44 148 C98.56 148 241.12 148 388 148 C391.82112394 117.14337155 391.82112394 117.14337155 381 85 C375.25407091 80.56972757 369.22910404 79.86435966 362.1640625 79.90234375 C361.2045166 79.90484131 360.2449707 79.90733887 359.25634766 79.90991211 C358.05800293 79.91901611 356.8596582 79.92812012 355.625 79.9375 C349.870625 79.9684375 349.870625 79.9684375 344 80 C344 93.2 344 106.4 344 120 C330.8 120 317.6 120 304 120 C304 106.8 304 93.6 304 80 C216.88 80 129.76 80 40 80 C40 93.2 40 106.4 40 120 C26.8 120 13.6 120 0 120 C0 106.8 0 93.6 0 80 C-3.795 79.95875 -7.59 79.9175 -11.5 79.875 C-12.68013672 79.85679199 -13.86027344 79.83858398 -15.07617188 79.81982422 C-24.17205175 79.77222593 -32.1753753 80.41787465 -39 87 Z M-44 188 C-44.04125 231.395 -44.0825 274.79 -44.125 319.5 C-44.14320801 333.20982422 -44.16141602 346.91964844 -44.18017578 361.04492188 C-44.18686402 373.31793163 -44.18686402 373.31793163 -44.19088745 385.59094238 C-44.19275322 391.06394178 -44.20009254 396.53690163 -44.21115112 402.0098877 C-44.22388796 408.32279206 -44.22967043 414.63565727 -44.2268899 420.94857457 C-44.22568581 424.17743265 -44.22870385 427.4061856 -44.23843026 430.6350317 C-44.24837023 434.09526016 -44.24598266 437.55526949 -44.24050903 441.01550293 C-44.24633436 442.01912117 -44.25215969 443.02273941 -44.25816154 444.05677032 C-44.22122374 452.73831014 -43.25301151 460.51661438 -37 467 C-30.93167473 471.67884893 -24.59148717 472.12421499 -17.16205025 472.12863445 C-16.49568147 472.13038749 -15.82931269 472.13214053 -15.14275092 472.13394669 C-12.91196966 472.13859508 -10.68125391 472.13614419 -8.45046997 472.13371277 C-6.8340709 472.13558132 -5.21767228 472.1378822 -3.60127437 472.14057809 C0.83914672 472.14669694 5.27954898 472.1465624 9.71997333 472.14538372 C14.50943464 472.14517973 19.29888989 472.15069821 24.08834839 472.15544128 C33.47095344 472.16374867 42.8535522 472.16649616 52.23616062 472.16705366 C59.86180864 472.16752874 67.48745459 472.1695831 75.11310196 472.17275429 C96.72943995 472.1815608 118.34577297 472.18617362 139.96211277 472.18542381 C141.71022486 472.18536388 141.71022486 472.18536388 143.49365234 472.18530273 C144.66048184 472.18526185 145.82731134 472.18522097 147.02949931 472.18517885 C165.9447783 472.1847723 184.86003739 472.19434427 203.77531062 472.2084411 C223.19367371 472.22279879 242.61202709 472.22971163 262.03039563 472.22884732 C272.93385542 472.22851516 283.83729435 472.23127067 294.74074936 472.24202538 C304.02305095 472.25112234 313.30532221 472.25331221 322.58762632 472.24651595 C327.32375352 472.2432468 332.05982252 472.24320836 336.79594421 472.2518692 C341.13231682 472.25971752 345.4685849 472.25831985 349.8049549 472.24958507 C351.37287568 472.24804641 352.9408042 472.24987999 354.50871585 472.25544515 C369.98772619 472.49761078 369.98772619 472.49761078 383 465 C388.53467761 457.82169086 388.1451365 449.87937301 388.12025452 441.25601196 C388.12111053 440.17543518 388.12196655 439.0948584 388.12284851 437.98153687 C388.12450375 434.34916536 388.11897994 430.71683995 388.11352539 427.08447266 C388.11321907 424.44049161 388.11330812 421.7965133 388.11389065 419.15253258 C388.11442191 412.78591149 388.10980847 406.41930453 388.10338932 400.05268707 C388.09618544 392.68706118 388.09539436 385.32144022 388.09460449 377.95581055 C388.08935552 358.51220479 388.07539439 339.06860219 388.0625 319.625 C388.041875 276.18875 388.02125 232.7525 388 188 C245.44 188 102.88 188 -44 188 Z " fill="#000000" transform="translate(84,0)"/>
<path d="M0 0 C13.2 0 26.4 0 40 0 C40 13.2 40 26.4 40 40 C26.8 40 13.6 40 0 40 C0 26.8 0 13.6 0 0 Z " fill="#000000" transform="translate(316,390)"/>
<path d="M0 0 C13.2 0 26.4 0 40 0 C40 13.2 40 26.4 40 40 C26.8 40 13.6 40 0 40 C0 26.8 0 13.6 0 0 Z " fill="#000000" transform="translate(236,390)"/>
<path d="M0 0 C13.2 0 26.4 0 40 0 C40 13.2 40 26.4 40 40 C26.8 40 13.6 40 0 40 C0 26.8 0 13.6 0 0 Z " fill="#000000" transform="translate(156,390)"/>
<path d="M0 0 C13.2 0 26.4 0 40 0 C40 13.2 40 26.4 40 40 C26.8 40 13.6 40 0 40 C0 26.8 0 13.6 0 0 Z " fill="#000000" transform="translate(76,390)"/>
<path d="M0 0 C13.2 0 26.4 0 40 0 C40 13.2 40 26.4 40 40 C26.8 40 13.6 40 0 40 C0 26.8 0 13.6 0 0 Z " fill="#000000" transform="translate(396,310)"/>
<path d="M0 0 C13.2 0 26.4 0 40 0 C40 13.2 40 26.4 40 40 C26.8 40 13.6 40 0 40 C0 26.8 0 13.6 0 0 Z " fill="#000000" transform="translate(316,310)"/>
<path d="M0 0 C13.2 0 26.4 0 40 0 C40 13.2 40 26.4 40 40 C26.8 40 13.6 40 0 40 C0 26.8 0 13.6 0 0 Z " fill="#000000" transform="translate(236,310)"/>
<path d="M0 0 C13.2 0 26.4 0 40 0 C40 13.2 40 26.4 40 40 C26.8 40 13.6 40 0 40 C0 26.8 0 13.6 0 0 Z " fill="#000000" transform="translate(156,310)"/>
<path d="M0 0 C13.2 0 26.4 0 40 0 C40 13.2 40 26.4 40 40 C26.8 40 13.6 40 0 40 C0 26.8 0 13.6 0 0 Z " fill="#000000" transform="translate(76,310)"/>
<path d="M0 0 C13.2 0 26.4 0 40 0 C40 13.2 40 26.4 40 40 C26.8 40 13.6 40 0 40 C0 26.8 0 13.6 0 0 Z " fill="#000000" transform="translate(396,230)"/>
<path d="M0 0 C13.2 0 26.4 0 40 0 C40 13.2 40 26.4 40 40 C26.8 40 13.6 40 0 40 C0 26.8 0 13.6 0 0 Z " fill="#000000" transform="translate(316,230)"/>
<path d="M0 0 C13.2 0 26.4 0 40 0 C40 13.2 40 26.4 40 40 C26.8 40 13.6 40 0 40 C0 26.8 0 13.6 0 0 Z " fill="#000000" transform="translate(236,230)"/>
<path d="M0 0 C13.2 0 26.4 0 40 0 C40 13.2 40 26.4 40 40 C26.8 40 13.6 40 0 40 C0 26.8 0 13.6 0 0 Z " fill="#000000" transform="translate(156,230)"/>
<path d="M0 0 C13.2 0 26.4 0 40 0 C40 13.2 40 26.4 40 40 C26.8 40 13.6 40 0 40 C0 26.8 0 13.6 0 0 Z " fill="#000000" transform="translate(76,230)"/>
</svg>
